<svg width="36" height="32" viewBox="0 0 36 32" fill="none" xmlns="http://www.w3.org/2000/svg">
<g filter="url(#filter0_d_2_3379)">
<path d="M4 2C4 0.895431 4.89543 0 6 0H30C31.1046 0 32 0.895431 32 2C32 3.10457 31.1046 4 30 4H6C4.89543 4 4 3.10457 4 2Z" fill="white"/>
<path d="M4 12C4 10.8954 4.89543 10 6 10H30C31.1046 10 32 10.8954 32 12C32 13.1046 31.1046 14 30 14H6C4.89543 14 4 13.1046 4 12Z" fill="white"/>
<path d="M4 22C4 20.8954 4.89543 20 6 20H30C31.1046 20 32 20.8954 32 22C32 23.1046 31.1046 24 30 24H6C4.89543 24 4 23.1046 4 22Z" fill="white"/>
<path d="M6 0.5H30C30.8284 0.5 31.5 1.17157 31.5 2C31.5 2.82843 30.8284 3.5 30 3.5H6C5.17157 3.5 4.5 2.82843 4.5 2C4.5 1.17157 5.17157 0.5 6 0.5ZM6 10.5H30C30.8284 10.5 31.5 11.1716 31.5 12C31.5 12.8284 30.8284 13.5 30 13.5H6C5.17157 13.5 4.5 12.8284 4.5 12C4.5 11.1716 5.17157 10.5 6 10.5ZM6 20.5H30C30.8284 20.5 31.5 21.1716 31.5 22C31.5 22.8284 30.8284 23.5 30 23.5H6C5.17157 23.5 4.5 22.8284 4.5 22C4.5 21.1716 5.17157 20.5 6 20.5Z" stroke="white"/>
</g>
<defs>
<filter id="filter0_d_2_3379" x="0" y="0" width="36" height="32" filterUnits="userSpaceOnUse" color-interpolation-filters="sRGB">
<feFlood flood-opacity="0" result="BackgroundImageFix"/>
<feColorMatrix in="SourceAlpha" type="matrix" values="0 0 0 0 0 0 0 0 0 0 0 0 0 0 0 0 0 0 127 0" result="hardAlpha"/>
<feOffset dy="4"/>
<feGaussianBlur stdDeviation="2"/>
<feComposite in2="hardAlpha" operator="out"/>
<feColorMatrix type="matrix" values="0 0 0 0 0 0 0 0 0 0 0 0 0 0 0 0 0 0 0.25 0"/>
<feBlend mode="normal" in2="BackgroundImageFix" result="effect1_dropShadow_2_3379"/>
<feBlend mode="normal" in="SourceGraphic" in2="effect1_dropShadow_2_3379" result="shape"/>
</filter>
</defs>
</svg>
