<svg width="24" height="14" viewBox="0 0 24 14" fill="none" xmlns="http://www.w3.org/2000/svg">
<path fill-rule="evenodd" clip-rule="evenodd" d="M14.8883 12.5017H8.76367V1.49487H14.8884L14.8883 12.5017Z" fill="#6C6BBD"/>
<path fill-rule="evenodd" clip-rule="evenodd" d="M9.15147 7.00012C9.15147 4.76738 10.1969 2.77845 11.8248 1.49668C10.5928 0.525229 9.06814 -0.00234151 7.49923 7.81249e-06C3.63356 7.81249e-06 0.5 3.13401 0.5 7.00012C0.5 10.8662 3.63356 14.0002 7.49923 14.0002C9.06814 14.0025 10.5929 13.4749 11.8249 12.5035C10.1971 11.2219 9.15147 9.23293 9.15147 7.00012Z" fill="#EB001B"/>
<path fill-rule="evenodd" clip-rule="evenodd" d="M23.1497 7.00012C23.1497 10.8662 20.0161 14.0002 16.1505 14.0002C14.5814 14.0024 13.0565 13.4749 11.8242 12.5035C13.4526 11.2217 14.498 9.23293 14.498 7.00012C14.498 4.76723 13.4526 2.77845 11.8242 1.49668C13.0564 0.525229 14.5813 -0.00226858 16.1504 7.33385e-06C20.016 7.33385e-06 23.1496 3.13401 23.1496 7.00012" fill="#0099DF"/>
</svg>
