<svg width="24" height="14" viewBox="0 0 24 14" fill="none" xmlns="http://www.w3.org/2000/svg">
<path fill-rule="evenodd" clip-rule="evenodd" d="M22.9337 11.3367V11.0649H22.8629L22.781 11.2514L22.6996 11.0649H22.6286V11.3367H22.6788V11.132L22.7554 11.3086H22.8075L22.884 11.1315V11.3367H22.9339H22.9337ZM22.4846 11.3367V11.1115H22.5752V11.0656H22.3438V11.1115H22.4343V11.3367H22.4846Z" fill="#F79410"/>
<path fill-rule="evenodd" clip-rule="evenodd" d="M14.8883 12.5014H8.76367V1.49463H14.8884L14.8883 12.5014Z" fill="#FF5F00"/>
<path fill-rule="evenodd" clip-rule="evenodd" d="M9.15147 6.99987C9.15147 4.76713 10.1969 2.77821 11.8248 1.49643C10.5928 0.524985 9.06814 -0.00258565 7.49923 -0.000236328C3.63356 -0.000236328 0.5 3.13376 0.5 6.99987C0.5 10.8659 3.63356 13.9999 7.49923 13.9999C9.06814 14.0023 10.5929 13.4747 11.8249 12.5032C10.1971 11.2217 9.15147 9.23269 9.15147 6.99987Z" fill="#EB001B"/>
<path fill-rule="evenodd" clip-rule="evenodd" d="M23.1497 6.99987C23.1497 10.8659 20.0161 13.9999 16.1505 13.9999C14.5814 14.0022 13.0565 13.4747 11.8242 12.5032C13.4526 11.2215 14.498 9.23269 14.498 6.99987C14.498 4.76699 13.4526 2.77821 11.8242 1.49643C13.0564 0.524984 14.5813 -0.00251272 16.1504 -0.000236807C20.016 -0.000236807 23.1496 3.13376 23.1496 6.99987" fill="#F79410"/>
</svg>
