<svg width="30" height="10" viewBox="0 0 30 10" fill="none" xmlns="http://www.w3.org/2000/svg">
<path d="M16.682 1.84378L14.8652 5.75832H14.6814V1.00032H12.0859V9.0024H14.238C14.8219 9.0024 15.341 8.66718 15.5898 8.14813L17.4174 4.24441H17.6012V9.0024H20.1966V1.00032H18.0121C17.4498 1.00032 16.9199 1.33554 16.682 1.84378Z" fill="#319B42"/>
<path d="M6.97268 2.04924L5.90207 5.75832H5.71823L4.6368 2.04924C4.45296 1.42205 3.8798 1.00032 3.23095 1.00032H0.667969V9.0024H3.26339V4.24441H3.44723L4.9396 9.0024H6.66988L8.16225 4.24441H8.34609V9.0024H10.9415V1.00032H8.37853C7.72968 1.00032 7.14571 1.42205 6.97268 2.04924Z" fill="#319B42"/>
<path d="M21.3247 4.5674V9.0024H23.9209V6.40631H26.7119C27.9235 6.40631 28.9512 5.63829 29.3298 4.5674H21.3247Z" fill="#319B42"/>
<path d="M26.636 1.00032H20.8594C21.2164 2.90412 22.8823 4.24544 24.8836 4.24544H29.3729C29.4054 4.07237 29.427 3.87766 29.427 3.68295C29.427 2.13611 28.183 1.00032 26.636 1.00032Z" fill="url(#paint0_linear_17_2032)"/>
<defs>
<linearGradient id="paint0_linear_17_2032" x1="20.8594" y1="2.62288" x2="29.427" y2="2.62288" gradientUnits="userSpaceOnUse">
<stop stop-color="#00A3E1"/>
<stop offset="0.3042" stop-color="#009ADD"/>
<stop offset="0.7987" stop-color="#0082D4"/>
<stop offset="1" stop-color="#0076CF"/>
</linearGradient>
</defs>
</svg>
