<svg width="32" height="12" viewBox="0 0 32 12" fill="none" xmlns="http://www.w3.org/2000/svg">
<path fill-rule="evenodd" clip-rule="evenodd" d="M16.4709 4.17815C16.453 5.58578 17.7254 6.37131 18.6838 6.83836C19.6686 7.31761 19.9994 7.62491 19.9956 8.05338C19.9881 8.70928 19.21 8.99867 18.4818 9.00993C17.2113 9.02965 16.4727 8.66696 15.8855 8.3926L15.4279 10.5341C16.017 10.8057 17.108 11.0425 18.2394 11.0528C20.8949 11.0528 22.6323 9.74195 22.6418 7.70948C22.6521 5.13008 19.0738 4.98723 19.0982 3.83424C19.1067 3.4847 19.4403 3.11161 20.1713 3.01671C20.5331 2.96884 21.532 2.93215 22.6643 3.45364L23.1087 1.38174C22.4998 1.15995 21.7171 0.947548 20.7427 0.947548C18.2431 0.947548 16.485 2.27625 16.4709 4.17815ZM27.3796 1.12607C26.8947 1.12607 26.4859 1.40896 26.3037 1.84307L22.5102 10.9006H25.1638L25.6919 9.44123H28.9347L29.241 10.9006H31.5799L29.5389 1.12607H27.3796ZM27.7507 3.76657L28.5165 7.43692H26.4192L27.7507 3.76657ZM13.2535 1.12607L11.1618 10.9006H13.6904L15.7812 1.12607H13.2535ZM9.51266 1.12607L6.88061 7.77895L5.81595 2.12213C5.69101 1.49072 5.19768 1.12607 4.64982 1.12607H0.347122L0.286962 1.4099C1.17028 1.60157 2.17385 1.91074 2.78179 2.24151C3.15386 2.44351 3.2601 2.62015 3.38222 3.10034L5.39874 10.9006H8.07123L12.1682 1.12607H9.51266Z" fill="#1434CB"/>
</svg>
