<svg width="308" height="76" viewBox="0 0 308 76" fill="none" xmlns="http://www.w3.org/2000/svg">
<g filter="url(#filter0_dd_17_2096)">
<rect x="10" y="8" width="288" height="56" rx="8" fill="white" shape-rendering="crispEdges"/>
<path d="M32.0176 31H27.1934V21.8975H31.8145V22.8623H28.2598V25.8901H31.5479V26.8486H28.2598V30.0352H32.0176V31ZM38.0605 30.7017C37.5612 31.0021 36.9688 31.1523 36.2832 31.1523C35.3564 31.1523 34.6074 30.8519 34.0361 30.251C33.4691 29.6458 33.1855 28.863 33.1855 27.9023C33.1855 26.8317 33.4924 25.9727 34.106 25.3252C34.7196 24.6735 35.5384 24.3477 36.5625 24.3477C37.1338 24.3477 37.6374 24.4535 38.0732 24.665V25.7314C37.5908 25.3929 37.0745 25.2236 36.5244 25.2236C35.86 25.2236 35.3141 25.4627 34.8867 25.9409C34.4635 26.4149 34.252 27.0391 34.252 27.8135C34.252 28.5752 34.4508 29.1761 34.8486 29.6162C35.2507 30.0563 35.7881 30.2764 36.4609 30.2764C37.028 30.2764 37.5612 30.0881 38.0605 29.7114V30.7017ZM44.3765 31H43.3418V25.3823H41.8311C41.6576 27.4855 41.3592 28.9624 40.936 29.813C40.5171 30.6636 39.9521 31.0889 39.2412 31.0889C39.0254 31.0889 38.8392 31.0592 38.6826 31V30.105C38.8307 30.1812 38.9915 30.2192 39.165 30.2192C40.096 30.2192 40.6948 28.3128 40.9614 24.5H44.3765V31ZM51.9365 31H50.9971V25.814C50.904 25.9959 50.7622 26.252 50.5718 26.582L47.5693 31H46.4902V24.5H47.4424V29.6226C47.4932 29.4998 47.6032 29.2904 47.7725 28.9941L50.8574 24.5H51.9365V31ZM61.6929 25.3887H59.7441V31H58.7031V25.3887H56.748V24.5H61.6929V25.3887ZM65.6602 31.1523C64.6995 31.1523 63.9315 30.8498 63.356 30.2446C62.7847 29.6353 62.499 28.8291 62.499 27.8262C62.499 26.7344 62.7974 25.8817 63.394 25.2681C63.9907 24.6545 64.7969 24.3477 65.8125 24.3477C66.7816 24.3477 67.5369 24.646 68.0786 25.2427C68.6245 25.8394 68.8975 26.6667 68.8975 27.7246C68.8975 28.7614 68.6034 29.5929 68.0151 30.2192C67.4312 30.8413 66.6462 31.1523 65.6602 31.1523ZM65.7363 25.2236C65.0677 25.2236 64.5387 25.4521 64.1494 25.9092C63.7601 26.362 63.5654 26.9883 63.5654 27.7881C63.5654 28.5583 63.7622 29.1655 64.1558 29.6099C64.5493 30.0542 65.0762 30.2764 65.7363 30.2764C66.4092 30.2764 66.9255 30.0584 67.2852 29.6226C67.6491 29.1867 67.8311 28.5667 67.8311 27.7627C67.8311 26.9502 67.6491 26.3239 67.2852 25.8838C66.9255 25.4437 66.4092 25.2236 65.7363 25.2236ZM70.5605 31V24.5H73.3916C74.0306 24.5 74.5342 24.6418 74.9023 24.9253C75.2747 25.2088 75.4609 25.596 75.4609 26.0869C75.4609 26.929 75.0462 27.4411 74.2168 27.623C75.2113 27.75 75.7085 28.2515 75.7085 29.1274C75.7085 29.6564 75.5033 30.1007 75.0928 30.4604C74.6865 30.8201 74.1808 31 73.5757 31L70.5605 31ZM71.6016 25.3887V27.2168H73.1631C74.001 27.2168 74.4199 26.891 74.4199 26.2393C74.4199 25.6722 74.0433 25.3887 73.29 25.3887H71.6016ZM71.6016 28.1055V30.1113H73.4043C74.2464 30.1113 74.6675 29.7707 74.6675 29.0894C74.6675 28.4334 74.1956 28.1055 73.252 28.1055H71.6016ZM82.1069 31H81.0659V29.9844H81.0405C80.5877 30.763 79.9212 31.1523 79.041 31.1523C78.3936 31.1523 77.8857 30.981 77.5176 30.6382C77.1536 30.2954 76.9717 29.8405 76.9717 29.2734C76.9717 28.0589 77.6868 27.3522 79.1172 27.1533L81.0659 26.8804C81.0659 25.7759 80.6195 25.2236 79.7266 25.2236C78.9437 25.2236 78.237 25.4902 77.6064 26.0234V24.957C78.2454 24.5508 78.9818 24.3477 79.8154 24.3477C81.3431 24.3477 82.1069 25.1559 82.1069 26.7725V31ZM81.0659 27.7119L79.498 27.9277C79.0156 27.9954 78.6517 28.116 78.4062 28.2896C78.1608 28.4588 78.0381 28.7614 78.0381 29.1973C78.0381 29.5146 78.1502 29.7749 78.3745 29.978C78.603 30.1769 78.9056 30.2764 79.2822 30.2764C79.7985 30.2764 80.2238 30.0965 80.5581 29.7368C80.8966 29.3729 81.0659 28.9137 81.0659 28.3594V27.7119ZM85.1348 30.0605H85.1094V33.9897H84.0684V24.5H85.1094V25.6426H85.1348C85.6468 24.7793 86.3958 24.3477 87.3818 24.3477C88.2197 24.3477 88.8735 24.6396 89.3433 25.2236C89.813 25.8034 90.0479 26.582 90.0479 27.5596C90.0479 28.6471 89.7834 29.5189 89.2544 30.1748C88.7254 30.8265 88.0018 31.1523 87.0835 31.1523C86.2414 31.1523 85.5918 30.7884 85.1348 30.0605ZM85.1094 27.439V28.3467C85.1094 28.8841 85.2829 29.3411 85.6299 29.7178C85.9811 30.0902 86.4255 30.2764 86.9629 30.2764C87.5934 30.2764 88.0864 30.0352 88.4419 29.5527C88.8016 29.0703 88.9814 28.3996 88.9814 27.5405C88.9814 26.8169 88.8143 26.2498 88.48 25.8394C88.1457 25.4289 87.6929 25.2236 87.1216 25.2236C86.5164 25.2236 86.0298 25.4352 85.6616 25.8584C85.2935 26.2773 85.1094 26.8042 85.1094 27.439ZM98.8203 31H97.792V24.5H98.8203V31ZM91.7109 31V24.5H92.752V26.9946H94.5039C95.1683 26.9946 95.6951 27.1681 96.0845 27.5151C96.478 27.8621 96.6748 28.3467 96.6748 28.9687C96.6748 29.5951 96.478 30.0902 96.0845 30.4541C95.6909 30.818 95.1937 31 94.5928 31H91.7109ZM92.752 27.8896V30.1113H94.3135C95.1768 30.1113 95.6084 29.7305 95.6084 28.9687C95.6084 28.2493 95.1725 27.8896 94.3008 27.8896H92.752ZM104.508 31V24.5H107.339C107.978 24.5 108.481 24.6418 108.85 24.9253C109.222 25.2088 109.408 25.596 109.408 26.0869C109.408 26.929 108.993 27.4411 108.164 27.623C109.159 27.75 109.656 28.2515 109.656 29.1274C109.656 29.6564 109.451 30.1007 109.04 30.4604C108.634 30.8201 108.128 31 107.523 31H104.508ZM105.549 25.3887V27.2168H107.11C107.948 27.2168 108.367 26.891 108.367 26.2393C108.367 25.6722 107.991 25.3887 107.237 25.3887H105.549ZM105.549 28.1055V30.1113H107.352C108.194 30.1113 108.615 29.7707 108.615 29.0894C108.615 28.4334 108.143 28.1055 107.199 28.1055H105.549ZM116.054 31H115.013V29.9844H114.988C114.535 30.763 113.868 31.1523 112.988 31.1523C112.341 31.1523 111.833 30.981 111.465 30.6382C111.101 30.2954 110.919 29.8405 110.919 29.2734C110.919 28.0589 111.634 27.3522 113.064 27.1533L115.013 26.8804C115.013 25.7759 114.567 25.2236 113.674 25.2236C112.891 25.2236 112.184 25.4902 111.554 26.0234V24.957C112.193 24.5508 112.929 24.3477 113.763 24.3477C115.29 24.3477 116.054 25.1559 116.054 26.7725V31ZM115.013 27.7119L113.445 27.9277C112.963 27.9954 112.599 28.116 112.354 28.2896C112.108 28.4588 111.985 28.7614 111.985 29.1973C111.985 29.5146 112.097 29.7749 112.322 29.978C112.55 30.1769 112.853 30.2764 113.229 30.2764C113.746 30.2764 114.171 30.0965 114.505 29.7368C114.844 29.3729 115.013 28.9137 115.013 28.3594V27.7119ZM125.036 31L124.008 31V25.6426C123.915 25.9134 123.771 26.3112 123.576 26.8359L121.951 31H121.018L119.342 26.8359C119.253 26.6117 119.11 26.2139 118.911 25.6426V31H118.016V24.5H119.342L121.056 28.7402C121.179 29.0492 121.335 29.4766 121.526 30.0225L121.989 28.7656L123.652 24.5H125.036V31ZM136.106 31H135.065V28.0483H131.752V31H130.711V24.5H131.752V27.166H135.065V24.5H136.106V31ZM143.438 28.0103L138.849 28.0103C138.866 28.7339 139.06 29.2925 139.433 29.686C139.805 30.0796 140.317 30.2764 140.969 30.2764C141.701 30.2764 142.374 30.0352 142.987 29.5527V30.5303C142.416 30.945 141.661 31.1523 140.721 31.1523C139.803 31.1523 139.081 30.8582 138.557 30.27C138.032 29.6776 137.77 28.846 137.77 27.7754C137.77 26.764 138.055 25.9409 138.626 25.3062C139.202 24.6672 139.915 24.3477 140.766 24.3477C141.616 24.3477 142.274 24.6227 142.74 25.1729C143.205 25.723 143.438 26.4868 143.438 27.4644V28.0103ZM142.372 27.1279C142.367 26.527 142.221 26.0594 141.934 25.7251C141.65 25.3908 141.254 25.2236 140.747 25.2236C140.256 25.2236 139.839 25.3993 139.496 25.7505C139.153 26.1017 138.942 26.5609 138.861 27.1279L142.372 27.1279ZM153.981 31H152.94V25.3887H149.627V31H148.586V24.5H153.981V31ZM158.806 31.1523C157.845 31.1523 157.077 30.8498 156.501 30.2446C155.93 29.6353 155.645 28.8291 155.645 27.8262C155.645 26.7344 155.943 25.8817 156.54 25.2681C157.136 24.6545 157.942 24.3477 158.958 24.3477C159.927 24.3477 160.682 24.646 161.224 25.2427C161.77 25.8394 162.043 26.6667 162.043 27.7246C162.043 28.7614 161.749 29.5929 161.161 30.2192C160.577 30.8413 159.792 31.1523 158.806 31.1523ZM158.882 25.2236C158.213 25.2236 157.684 25.4521 157.295 25.9092C156.906 26.362 156.711 26.9883 156.711 27.7881C156.711 28.5583 156.908 29.1655 157.301 29.6099C157.695 30.0542 158.222 30.2764 158.882 30.2764C159.555 30.2764 160.071 30.0584 160.431 29.6226C160.795 29.1867 160.977 28.5667 160.977 27.7627C160.977 26.9502 160.795 26.3239 160.431 25.8838C160.071 25.4437 159.555 25.2236 158.882 25.2236ZM169.375 33.3677H168.492V31H163.655V33.3677H162.767V30.1177H163.344C164.453 28.5181 165.016 26.6455 165.033 24.5H168.41V30.1177H169.375V33.3677ZM167.369 30.1177V25.3823H165.928C165.813 27.1343 165.32 28.7127 164.449 30.1177H167.369ZM173.532 31.1523C172.572 31.1523 171.804 30.8498 171.228 30.2446C170.657 29.6353 170.371 28.8291 170.371 27.8262C170.371 26.7344 170.669 25.8817 171.266 25.2681C171.863 24.6545 172.669 24.3477 173.685 24.3477C174.654 24.3477 175.409 24.646 175.951 25.2427C176.497 25.8394 176.77 26.6667 176.77 27.7246C176.77 28.7614 176.475 29.5929 175.887 30.2192C175.303 30.8413 174.518 31.1523 173.532 31.1523ZM173.608 25.2236C172.94 25.2236 172.411 25.4521 172.021 25.9092C171.632 26.362 171.438 26.9883 171.438 27.7881C171.438 28.5583 171.634 29.1655 172.028 29.6099C172.421 30.0542 172.948 30.2764 173.608 30.2764C174.281 30.2764 174.798 30.0584 175.157 29.6226C175.521 29.1867 175.703 28.5667 175.703 27.7627C175.703 26.9502 175.521 26.3239 175.157 25.8838C174.798 25.4437 174.281 25.2236 173.608 25.2236ZM183.879 31H182.939V25.814C182.846 25.9959 182.705 26.252 182.514 26.582L179.512 31H178.433V24.5H179.385V29.6226C179.436 29.4998 179.546 29.2904 179.715 28.9941L182.8 24.5H183.879V31ZM183.498 21.3389C183.435 21.9355 183.193 22.4074 182.774 22.7544C182.36 23.0972 181.839 23.2686 181.213 23.2686C180.57 23.2686 180.045 23.0972 179.639 22.7544C179.237 22.4074 179.017 21.9355 178.979 21.3389H180.007C180.066 22.1344 180.472 22.5322 181.226 22.5322C181.564 22.5322 181.843 22.4285 182.063 22.2212C182.284 22.0096 182.419 21.7155 182.47 21.3389H183.498ZM191.655 33.3677H190.772V31H185.936V33.3677H185.047V30.1177H185.625C186.733 28.5181 187.296 26.6455 187.313 24.5H190.69V30.1177H191.655V33.3677ZM189.649 30.1177V25.3823H188.208C188.094 27.1343 187.601 28.7127 186.729 30.1177H189.649ZM198.269 24.5L195.279 32.041C194.746 33.3867 193.997 34.0596 193.032 34.0596C192.761 34.0596 192.535 34.0321 192.353 33.9771V33.0439C192.577 33.1201 192.783 33.1582 192.969 33.1582C193.493 33.1582 193.887 32.8451 194.149 32.2187L194.67 30.9873L192.131 24.5H193.286L195.044 29.502C195.066 29.5654 195.11 29.7305 195.178 29.9971H195.216C195.237 29.8955 195.279 29.7347 195.343 29.5146L197.19 24.5H198.269ZM203.474 25.3887H201.525V31H200.484V25.3887H198.529V24.5H203.474V25.3887ZM205.677 29.5527L204.661 32.6758H203.918L204.661 29.5527H205.677ZM218.131 31H217.103V25.6426C217.009 25.9134 216.866 26.3112 216.671 26.8359L215.046 31H214.113L212.437 26.8359C212.348 26.6117 212.204 26.2139 212.005 25.6426V31H211.11V24.5H212.437L214.151 28.7402C214.274 29.0492 214.43 29.4766 214.621 30.0225L215.084 28.7656L216.747 24.5L218.131 24.5V31ZM227.348 31H226.319V24.5H227.348V31ZM220.238 31V24.5H221.279V26.9946H223.031C223.696 26.9946 224.222 27.1681 224.612 27.5151C225.005 27.8621 225.202 28.3467 225.202 28.9687C225.202 29.5951 225.005 30.0902 224.612 30.4541C224.218 30.818 223.721 31 223.12 31H220.238ZM221.279 27.8896V30.1113H222.841C223.704 30.1113 224.136 29.7305 224.136 28.9687C224.136 28.2493 223.7 27.8896 222.828 27.8896H221.279ZM233.035 31V24.5H235.866C236.505 24.5 237.009 24.6418 237.377 24.9253C237.749 25.2088 237.936 25.596 237.936 26.0869C237.936 26.929 237.521 27.4411 236.691 27.623C237.686 27.75 238.183 28.2515 238.183 29.1274C238.183 29.6564 237.978 30.1007 237.567 30.4604C237.161 30.8201 236.655 31 236.05 31H233.035ZM234.076 25.3887V27.2168H235.638C236.476 27.2168 236.895 26.891 236.895 26.2393C236.895 25.6722 236.518 25.3887 235.765 25.3887H234.076ZM234.076 28.1055V30.1113H235.879C236.721 30.1113 237.142 29.7707 237.142 29.0894C237.142 28.4334 236.67 28.1055 235.727 28.1055H234.076ZM245.153 28.0103H240.563C240.58 28.7339 240.775 29.2925 241.147 29.686C241.52 30.0796 242.032 30.2764 242.684 30.2764C243.416 30.2764 244.089 30.0352 244.702 29.5527V30.5303C244.131 30.945 243.375 31.1523 242.436 31.1523C241.518 31.1523 240.796 30.8582 240.271 30.27C239.747 29.6776 239.484 28.846 239.484 27.7754C239.484 26.764 239.77 25.9409 240.341 25.3062C240.917 24.6672 241.63 24.3477 242.48 24.3477C243.331 24.3477 243.989 24.6227 244.455 25.1729C244.92 25.723 245.153 26.4868 245.153 27.4644V28.0103ZM244.086 27.1279C244.082 26.527 243.936 26.0594 243.648 25.7251C243.365 25.3908 242.969 25.2236 242.461 25.2236C241.971 25.2236 241.554 25.3993 241.211 25.7505C240.868 26.1017 240.657 26.5609 240.576 27.1279H244.086ZM247.8 30.0605H247.774V33.9897H246.733V24.5H247.774V25.6426H247.8C248.312 24.7793 249.061 24.3477 250.047 24.3477C250.885 24.3477 251.539 24.6396 252.008 25.2236C252.478 25.8034 252.713 26.582 252.713 27.5596C252.713 28.6471 252.448 29.5189 251.919 30.1748C251.39 30.8265 250.667 31.1523 249.749 31.1523C248.906 31.1523 248.257 30.7884 247.8 30.0605ZM247.774 27.439V28.3467C247.774 28.8841 247.948 29.3411 248.295 29.7178C248.646 30.0902 249.09 30.2764 249.628 30.2764C250.258 30.2764 250.751 30.0352 251.107 29.5527C251.467 29.0703 251.646 28.3996 251.646 27.5405C251.646 26.8169 251.479 26.2498 251.145 25.8394C250.811 25.4289 250.358 25.2236 249.787 25.2236C249.181 25.2236 248.695 25.4352 248.327 25.8584C247.958 26.2773 247.774 26.8042 247.774 27.439ZM259.771 31H258.73V28.0483H255.417V31H254.376V24.5H255.417V27.166H258.73V24.5H259.771V31ZM267.103 28.0103L262.514 28.0103C262.531 28.7339 262.725 29.2925 263.098 29.686C263.47 30.0796 263.982 30.2764 264.634 30.2764C265.366 30.2764 266.039 30.0352 266.652 29.5527V30.5303C266.081 30.945 265.326 31.1523 264.386 31.1523C263.468 31.1523 262.746 30.8582 262.222 30.27C261.697 29.6776 261.435 28.846 261.435 27.7754C261.435 26.764 261.72 25.9409 262.292 25.3062C262.867 24.6672 263.58 24.3477 264.431 24.3477C265.281 24.3477 265.939 24.6227 266.405 25.1729C266.87 25.723 267.103 26.4868 267.103 27.4644V28.0103ZM266.037 27.1279C266.032 26.527 265.886 26.0594 265.599 25.7251C265.315 25.3908 264.919 25.2236 264.412 25.2236C263.921 25.2236 263.504 25.3993 263.161 25.7505C262.818 26.1017 262.607 26.5609 262.526 27.1279H266.037ZM275.704 31H274.676V25.6426C274.583 25.9134 274.439 26.3112 274.244 26.8359L272.619 31H271.686L270.01 26.8359C269.921 26.6117 269.778 26.2139 269.579 25.6426V31H268.684V24.5H270.01L271.724 28.7402C271.847 29.0492 272.003 29.4766 272.194 30.0225L272.657 28.7656L274.32 24.5H275.704V31ZM32.5 47H31.5605V41.814C31.4674 41.9959 31.3257 42.252 31.1353 42.582L28.1328 47H27.0537V40.5H28.0059V45.6226C28.0566 45.4998 28.1667 45.2904 28.3359 44.9941L31.4209 40.5H32.5V47ZM39.3555 40.5L37.1719 43.7881L39.3174 47H38.105L36.8291 44.8926C36.7487 44.7614 36.6535 44.5964 36.5435 44.3975H36.5181C36.4969 44.4355 36.3975 44.6006 36.2197 44.8926L34.9185 47H33.7188L35.9341 43.8135L33.814 40.5H35.0264L36.2832 42.7217C36.3763 42.8867 36.4673 43.056 36.5562 43.2295H36.5815L38.2065 40.5H39.3555ZM46.8584 47.1523C45.8978 47.1523 45.1297 46.8498 44.5542 46.2446C43.9829 45.6353 43.6973 44.8291 43.6973 43.8262C43.6973 42.7344 43.9956 41.8817 44.5923 41.2681C45.189 40.6545 45.9951 40.3477 47.0107 40.3477C47.9798 40.3477 48.7352 40.646 49.2769 41.2427C49.8228 41.8394 50.0957 42.6667 50.0957 43.7246C50.0957 44.7614 49.8016 45.5929 49.2134 46.2192C48.6294 46.8413 47.8444 47.1523 46.8584 47.1523ZM46.9346 41.2236C46.266 41.2236 45.737 41.4521 45.3477 41.9092C44.9583 42.362 44.7637 42.9883 44.7637 43.7881C44.7637 44.5583 44.9604 45.1655 45.354 45.6099C45.7476 46.0542 46.2744 46.2764 46.9346 46.2764C47.6074 46.2764 48.1237 46.0584 48.4834 45.6226C48.8473 45.1867 49.0293 44.5667 49.0293 43.7627C49.0293 42.9502 48.8473 42.3239 48.4834 41.8838C48.1237 41.4437 47.6074 41.2236 46.9346 41.2236ZM56.7861 37.3008V38.2783C56.6126 38.4053 56.3333 38.5005 55.9482 38.564C54.9961 38.7078 54.3296 38.8475 53.9487 38.9829C53.5721 39.1141 53.2611 39.3976 53.0156 39.8335C52.7744 40.2694 52.62 40.9062 52.5522 41.7441H52.5776C53.0854 41.0078 53.8091 40.6396 54.7485 40.6396C55.6076 40.6396 56.2995 40.9338 56.8242 41.522C57.349 42.1102 57.6113 42.8867 57.6113 43.8516C57.6113 44.846 57.3363 45.6458 56.7861 46.251C56.2402 46.8519 55.5039 47.1523 54.5771 47.1523C53.5785 47.1523 52.8083 46.799 52.2666 46.0923C51.7292 45.3813 51.4604 44.3678 51.4604 43.0518C51.4604 42.0277 51.5578 41.1602 51.7524 40.4492C51.9471 39.734 52.2158 39.1966 52.5586 38.8369C52.9056 38.4772 53.2886 38.2297 53.7075 38.0942C54.1307 37.9588 54.8543 37.8001 55.8784 37.6182C56.2847 37.5251 56.5872 37.4193 56.7861 37.3008ZM52.5396 42.7725V43.6738C52.5438 44.0124 52.5946 44.3446 52.6919 44.6704C52.7892 44.9963 52.9289 45.284 53.1108 45.5337C53.2928 45.7834 53.5065 45.9696 53.752 46.0923C54.0016 46.215 54.2852 46.2764 54.6025 46.2764C55.1823 46.2764 55.6499 46.0605 56.0054 45.6289C56.3651 45.193 56.5449 44.6366 56.5449 43.9595C56.5449 43.2147 56.3608 42.6243 55.9927 42.1885C55.6287 41.7484 55.1357 41.5283 54.5137 41.5283C53.6419 41.5283 52.9839 41.943 52.5396 42.7725ZM60.3535 46.0605H60.3281V49.9897H59.2871V40.5H60.3281V41.6426H60.3535C60.8656 40.7793 61.6146 40.3477 62.6006 40.3477C63.4385 40.3477 64.0923 40.6396 64.562 41.2236C65.0317 41.8034 65.2666 42.582 65.2666 43.5596C65.2666 44.6471 65.0021 45.5189 64.4731 46.1748C63.9442 46.8265 63.2205 47.1523 62.3022 47.1523C61.4601 47.1523 60.8105 46.7884 60.3535 46.0605ZM60.3281 43.439V44.3467C60.3281 44.8841 60.5016 45.3411 60.8486 45.7178C61.1999 46.0902 61.6442 46.2764 62.1816 46.2764C62.8122 46.2764 63.3052 46.0352 63.6606 45.5527C64.0203 45.0703 64.2002 44.3996 64.2002 43.5405C64.2002 42.8169 64.033 42.2498 63.6987 41.8394C63.3644 41.4289 62.9116 41.2236 62.3403 41.2236C61.7352 41.2236 61.2485 41.4352 60.8804 41.8584C60.5122 42.2773 60.3281 42.8042 60.3281 43.439ZM71.5825 47H70.5415V45.9844H70.5161C70.0633 46.763 69.3968 47.1523 68.5166 47.1523C67.8691 47.1523 67.3613 46.981 66.9932 46.6382C66.6292 46.2954 66.4473 45.8405 66.4473 45.2734C66.4473 44.0589 67.1624 43.3522 68.5928 43.1533L70.5415 42.8804C70.5415 41.7759 70.0951 41.2236 69.2021 41.2236C68.4193 41.2236 67.7126 41.4902 67.082 42.0234V40.957C67.721 40.5508 68.4574 40.3477 69.291 40.3477C70.8187 40.3477 71.5825 41.1559 71.5825 42.7725V47ZM70.5415 43.7119L68.9736 43.9277C68.4912 43.9954 68.1273 44.116 67.8818 44.2896C67.6364 44.4588 67.5137 44.7614 67.5137 45.1973C67.5137 45.5146 67.6258 45.7749 67.8501 45.978C68.0786 46.1769 68.3812 46.2764 68.7578 46.2764C69.2741 46.2764 69.6994 46.0965 70.0337 45.7368C70.3722 45.3729 70.5415 44.9137 70.5415 44.3594V43.7119ZM77.6255 41.3887H75.6768V47H74.6357V41.3887H72.6807V40.5H77.6255V41.3887ZM84.2715 47H83.2305V44.0483H79.917V47L78.876 47V40.5L79.917 40.5V43.166H83.2305V40.5H84.2715V47ZM89.0957 47.1523C88.1351 47.1523 87.367 46.8498 86.7915 46.2446C86.2202 45.6353 85.9346 44.8291 85.9346 43.8262C85.9346 42.7344 86.2329 41.8817 86.8296 41.2681C87.4263 40.6545 88.2324 40.3477 89.248 40.3477C90.2171 40.3477 90.9725 40.646 91.5142 41.2427C92.0601 41.8394 92.333 42.6667 92.333 43.7246C92.333 44.7614 92.0389 45.5929 91.4507 46.2192C90.8667 46.8413 90.0817 47.1523 89.0957 47.1523ZM89.1719 41.2236C88.5033 41.2236 87.9743 41.4521 87.585 41.9092C87.1956 42.362 87.001 42.9883 87.001 43.7881C87.001 44.5583 87.1978 45.1655 87.5913 45.6099C87.9849 46.0542 88.5117 46.2764 89.1719 46.2764C89.8447 46.2764 90.361 46.0584 90.7207 45.6226C91.0846 45.1867 91.2666 44.5667 91.2666 43.7627C91.2666 42.9502 91.0846 42.3239 90.7207 41.8838C90.361 41.4437 89.8447 41.2236 89.1719 41.2236ZM102.959 47H101.918V44.0483H98.6045V47H97.5635V40.5H98.6045V43.166H101.918V40.5H102.959V47ZM109.719 47H108.678V45.9844H108.653C108.2 46.763 107.534 47.1523 106.653 47.1523C106.006 47.1523 105.498 46.981 105.13 46.6382C104.766 46.2954 104.584 45.8405 104.584 45.2734C104.584 44.0589 105.299 43.3522 106.729 43.1533L108.678 42.8804C108.678 41.7759 108.232 41.2236 107.339 41.2236C106.556 41.2236 105.849 41.4902 105.219 42.0234V40.957C105.858 40.5508 106.594 40.3477 107.428 40.3477C108.955 40.3477 109.719 41.1559 109.719 42.7725V47ZM108.678 43.7119L107.11 43.9277C106.628 43.9954 106.264 44.116 106.019 44.2896C105.773 44.4588 105.65 44.7614 105.65 45.1973C105.65 45.5146 105.763 45.7749 105.987 45.978C106.215 46.1769 106.518 46.2764 106.895 46.2764C107.411 46.2764 107.836 46.0965 108.17 45.7368C108.509 45.3729 108.678 44.9137 108.678 44.3594V43.7119ZM119.679 46.7017C119.179 47.0021 118.587 47.1523 117.901 47.1523C116.975 47.1523 116.226 46.8519 115.654 46.251C115.087 45.6458 114.804 44.863 114.804 43.9023C114.804 42.8317 115.111 41.9727 115.724 41.3252C116.338 40.6735 117.157 40.3477 118.181 40.3477C118.752 40.3477 119.256 40.4535 119.691 40.665V41.7314C119.209 41.3929 118.693 41.2236 118.143 41.2236C117.478 41.2236 116.932 41.4627 116.505 41.9409C116.082 42.4149 115.87 43.0391 115.87 43.8135C115.87 44.5752 116.069 45.1761 116.467 45.6162C116.869 46.0563 117.406 46.2764 118.079 46.2764C118.646 46.2764 119.179 46.0881 119.679 45.7114V46.7017ZM126.648 47H125.188L122.319 43.877H122.294V47H121.253V40.5H122.294V43.4771H122.319L125.049 40.5H126.414L123.398 43.6357L126.648 47ZM132.457 47H131.422V41.3823H129.911C129.738 43.4855 129.439 44.9624 129.016 45.813C128.597 46.6636 128.032 47.0889 127.321 47.0889C127.105 47.0889 126.919 47.0592 126.763 47V46.105C126.911 46.1812 127.072 46.2192 127.245 46.2192C128.176 46.2192 128.775 44.3128 129.042 40.5H132.457V47ZM139.223 47H138.182V45.9844H138.157C137.704 46.763 137.037 47.1523 136.157 47.1523C135.51 47.1523 135.002 46.981 134.634 46.6382C134.27 46.2954 134.088 45.8405 134.088 45.2734C134.088 44.0589 134.803 43.3522 136.233 43.1533L138.182 42.8804C138.182 41.7759 137.736 41.2236 136.843 41.2236C136.06 41.2236 135.353 41.4902 134.723 42.0234V40.957C135.362 40.5508 136.098 40.3477 136.932 40.3477C138.459 40.3477 139.223 41.1559 139.223 42.7725V47ZM138.182 43.7119L136.614 43.9277C136.132 43.9954 135.768 44.116 135.522 44.2896C135.277 44.4588 135.154 44.7614 135.154 45.1973C135.154 45.5146 135.266 45.7749 135.491 45.978C135.719 46.1769 136.022 46.2764 136.398 46.2764C136.915 46.2764 137.34 46.0965 137.674 45.7368C138.013 45.3729 138.182 44.9137 138.182 44.3594V43.7119ZM146.853 49.3677H145.971V47H141.134V49.3677H140.245V46.1177H140.823C141.931 44.5181 142.494 42.6455 142.511 40.5H145.888V46.1177H146.853V49.3677ZM144.847 46.1177V41.3823H143.406C143.292 43.1343 142.799 44.7127 141.927 46.1177H144.847ZM163.808 43.7881H150.808V42.9692H163.808V43.7881ZM167.946 46.7144V45.7305C168.437 46.0944 169 46.2764 169.635 46.2764C170.248 46.2764 170.743 46.0881 171.12 45.7114C171.501 45.3306 171.708 44.8164 171.742 44.1689H168.975V43.2803H171.742C171.691 42.637 171.478 42.1335 171.101 41.7695C170.724 41.4056 170.223 41.2236 169.597 41.2236C168.992 41.2236 168.467 41.3887 168.022 41.7187V40.6904C168.471 40.4619 169 40.3477 169.609 40.3477C170.642 40.3477 171.435 40.6502 171.99 41.2554C172.544 41.8563 172.821 42.7048 172.821 43.8008C172.821 44.8206 172.536 45.6353 171.964 46.2446C171.397 46.8498 170.633 47.1523 169.673 47.1523C169.008 47.1523 168.433 47.0063 167.946 46.7144ZM178.515 41.3887H176.566V47H175.525V41.3887H173.57V40.5H178.515V41.3887ZM182.482 47.1523C181.522 47.1523 180.754 46.8498 180.178 46.2446C179.607 45.6353 179.321 44.8291 179.321 43.8262C179.321 42.7344 179.62 41.8817 180.216 41.2681C180.813 40.6545 181.619 40.3477 182.635 40.3477C183.604 40.3477 184.359 40.646 184.901 41.2427C185.447 41.8394 185.72 42.6667 185.72 43.7246C185.72 44.7614 185.426 45.5929 184.837 46.2192C184.253 46.8413 183.468 47.1523 182.482 47.1523ZM182.559 41.2236C181.89 41.2236 181.361 41.4521 180.972 41.9092C180.582 42.362 180.388 42.9883 180.388 43.7881C180.388 44.5583 180.584 45.1655 180.978 45.6099C181.372 46.0542 181.898 46.2764 182.559 46.2764C183.231 46.2764 183.748 46.0584 184.107 45.6226C184.471 45.1867 184.653 44.5667 184.653 43.7627C184.653 42.9502 184.471 42.3239 184.107 41.8838C183.748 41.4437 183.231 41.2236 182.559 41.2236ZM195.978 37.3008V38.2783C195.804 38.4053 195.525 38.5005 195.14 38.564C194.188 38.7078 193.521 38.8475 193.14 38.9829C192.764 39.1141 192.452 39.3976 192.207 39.8335C191.966 40.2694 191.811 40.9062 191.744 41.7441H191.769C192.277 41.0078 193 40.6396 193.94 40.6396C194.799 40.6396 195.491 40.9338 196.016 41.522C196.54 42.1102 196.803 42.8867 196.803 43.8516C196.803 44.846 196.528 45.6458 195.978 46.251C195.432 46.8519 194.695 47.1523 193.769 47.1523C192.77 47.1523 192 46.799 191.458 46.0923C190.921 45.3813 190.652 44.3678 190.652 43.0518C190.652 42.0277 190.749 41.1602 190.944 40.4492C191.139 39.734 191.407 39.1966 191.75 38.8369C192.097 38.4772 192.48 38.2297 192.899 38.0942C193.322 37.9588 194.046 37.8001 195.07 37.6182C195.476 37.5251 195.779 37.4193 195.978 37.3008ZM191.731 42.7725V43.6738C191.735 44.0124 191.786 44.3446 191.883 44.6704C191.981 44.9963 192.12 45.284 192.302 45.5337C192.484 45.7834 192.698 45.9696 192.943 46.0923C193.193 46.215 193.477 46.2764 193.794 46.2764C194.374 46.2764 194.841 46.0605 195.197 45.6289C195.556 45.193 195.736 44.6366 195.736 43.9595C195.736 43.2147 195.552 42.6243 195.184 42.1885C194.82 41.7484 194.327 41.5283 193.705 41.5283C192.833 41.5283 192.175 41.943 191.731 42.7725ZM203.703 44.0103H199.113C199.13 44.7339 199.325 45.2925 199.697 45.686C200.07 46.0796 200.582 46.2764 201.233 46.2764C201.965 46.2764 202.638 46.0352 203.252 45.5527V46.5303C202.681 46.945 201.925 47.1523 200.986 47.1523C200.068 47.1523 199.346 46.8582 198.821 46.27C198.297 45.6776 198.034 44.846 198.034 43.7754C198.034 42.764 198.32 41.9409 198.891 41.3062C199.467 40.6672 200.18 40.3477 201.03 40.3477C201.881 40.3477 202.539 40.6227 203.004 41.1729C203.47 41.723 203.703 42.4868 203.703 43.4644V44.0103ZM202.636 43.1279C202.632 42.527 202.486 42.0594 202.198 41.7251C201.915 41.3908 201.519 41.2236 201.011 41.2236C200.52 41.2236 200.104 41.3993 199.761 41.7505C199.418 42.1017 199.206 42.5609 199.126 43.1279H202.636ZM209.714 46.7017C209.215 47.0021 208.622 47.1523 207.937 47.1523C207.01 47.1523 206.261 46.8519 205.689 46.251C205.122 45.6458 204.839 44.863 204.839 43.9023C204.839 42.8317 205.146 41.9727 205.759 41.3252C206.373 40.6735 207.192 40.3477 208.216 40.3477C208.787 40.3477 209.291 40.4535 209.727 40.665V41.7314C209.244 41.3929 208.728 41.2236 208.178 41.2236C207.513 41.2236 206.967 41.4627 206.54 41.9409C206.117 42.4149 205.905 43.0391 205.905 43.8135C205.905 44.5752 206.104 45.1761 206.502 45.6162C206.904 46.0563 207.441 46.2764 208.114 46.2764C208.681 46.2764 209.215 46.0881 209.714 45.7114V46.7017ZM216.684 47H215.643V41.3887H212.329V47H211.288V40.5H216.684V47ZM223.533 47H222.498V41.3823L220.987 41.3823C220.814 43.4855 220.515 44.9624 220.092 45.813C219.673 46.6636 219.108 47.0889 218.397 47.0889C218.182 47.0889 217.995 47.0592 217.839 47V46.105C217.987 46.1812 218.148 46.2192 218.321 46.2192C219.252 46.2192 219.851 44.3128 220.118 40.5L223.533 40.5V47ZM230.299 47H229.258V45.9844H229.233C228.78 46.763 228.114 47.1523 227.233 47.1523C226.586 47.1523 226.078 46.981 225.71 46.6382C225.346 46.2954 225.164 45.8405 225.164 45.2734C225.164 44.0589 225.879 43.3522 227.31 43.1533L229.258 42.8804C229.258 41.7759 228.812 41.2236 227.919 41.2236C227.136 41.2236 226.429 41.4902 225.799 42.0234V40.957C226.438 40.5508 227.174 40.3477 228.008 40.3477C229.535 40.3477 230.299 41.1559 230.299 42.7725V47ZM229.258 43.7119L227.69 43.9277C227.208 43.9954 226.844 44.116 226.599 44.2896C226.353 44.4588 226.23 44.7614 226.23 45.1973C226.23 45.5146 226.343 45.7749 226.567 45.978C226.795 46.1769 227.098 46.2764 227.475 46.2764C227.991 46.2764 228.416 46.0965 228.75 45.7368C229.089 45.3729 229.258 44.9137 229.258 44.3594V43.7119ZM236.342 41.3887H234.394V47H233.353V41.3887H231.397V40.5H236.342V41.3887ZM242.988 47H241.947V44.0483H238.634V47H237.593V40.5H238.634V43.166H241.947V40.5H242.988V47ZM247.812 47.1523C246.852 47.1523 246.084 46.8498 245.508 46.2446C244.937 45.6353 244.651 44.8291 244.651 43.8262C244.651 42.7344 244.95 41.8817 245.546 41.2681C246.143 40.6545 246.949 40.3477 247.965 40.3477C248.934 40.3477 249.689 40.646 250.231 41.2427C250.777 41.8394 251.05 42.6667 251.05 43.7246C251.05 44.7614 250.756 45.5929 250.167 46.2192C249.583 46.8413 248.799 47.1523 247.812 47.1523ZM247.889 41.2236C247.22 41.2236 246.691 41.4521 246.302 41.9092C245.912 42.362 245.718 42.9883 245.718 43.7881C245.718 44.5583 245.915 45.1655 246.308 45.6099C246.702 46.0542 247.229 46.2764 247.889 46.2764C248.562 46.2764 249.078 46.0584 249.438 45.6226C249.801 45.1867 249.983 44.5667 249.983 43.7627C249.983 42.9502 249.801 42.3239 249.438 41.8838C249.078 41.4437 248.562 41.2236 247.889 41.2236Z" fill="black"/>
</g>
<defs>
<filter id="filter0_dd_17_2096" x="0" y="0" width="308" height="76" filterUnits="userSpaceOnUse" color-interpolation-filters="sRGB">
<feFlood flood-opacity="0" result="BackgroundImageFix"/>
<feColorMatrix in="SourceAlpha" type="matrix" values="0 0 0 0 0 0 0 0 0 0 0 0 0 0 0 0 0 0 127 0" result="hardAlpha"/>
<feOffset/>
<feGaussianBlur stdDeviation="0.5"/>
<feComposite in2="hardAlpha" operator="out"/>
<feColorMatrix type="matrix" values="0 0 0 0 0 0 0 0 0 0 0 0 0 0 0 0 0 0 0.3 0"/>
<feBlend mode="normal" in2="BackgroundImageFix" result="effect1_dropShadow_17_2096"/>
<feColorMatrix in="SourceAlpha" type="matrix" values="0 0 0 0 0 0 0 0 0 0 0 0 0 0 0 0 0 0 127 0" result="hardAlpha"/>
<feOffset dy="2"/>
<feGaussianBlur stdDeviation="5"/>
<feComposite in2="hardAlpha" operator="out"/>
<feColorMatrix type="matrix" values="0 0 0 0 0 0 0 0 0 0 0 0 0 0 0 0 0 0 0.15 0"/>
<feBlend mode="normal" in2="effect1_dropShadow_17_2096" result="effect2_dropShadow_17_2096"/>
<feBlend mode="normal" in="SourceGraphic" in2="effect2_dropShadow_17_2096" result="shape"/>
</filter>
</defs>
</svg>
