<svg width="300" height="124" viewBox="0 0 300 124" fill="none" xmlns="http://www.w3.org/2000/svg">
<g filter="url(#filter0_dd_7_1186)">
<path d="M10 15.9999C10 11.5817 13.5817 7.99994 18 7.99994H282C286.418 7.99994 290 11.5817 290 15.9999V104C290 108.418 286.418 112 282 112H18C13.5817 112 10 108.418 10 104V15.9999Z" fill="white"/>
</g>
<path d="M30.8877 32.1587C29.5843 32.1587 28.5221 31.7355 27.7012 30.8892C26.8802 30.0386 26.4697 28.932 26.4697 27.5693C26.4697 26.1305 26.8866 24.9668 27.7202 24.0781C28.5539 23.1895 29.6584 22.7451 31.0337 22.7451C32.3328 22.7451 33.3823 23.1704 34.1821 24.021C34.9862 24.8716 35.3882 25.993 35.3882 27.3853C35.3882 28.8156 34.9714 29.9688 34.1377 30.8447C33.3083 31.7207 32.2249 32.1587 30.8877 32.1587ZM30.9766 24.5098C30.2572 24.5098 29.6859 24.7806 29.2627 25.3223C28.8395 25.8597 28.6279 26.5728 28.6279 27.4614C28.6279 28.3628 28.8395 29.0758 29.2627 29.6006C29.6859 30.1253 30.2402 30.3877 30.9258 30.3877C31.6325 30.3877 32.1932 30.1338 32.6079 29.626C33.0226 29.1139 33.23 28.4051 33.23 27.4995C33.23 26.5558 33.029 25.8216 32.627 25.2969C32.2249 24.7721 31.6748 24.5098 30.9766 24.5098ZM40.752 32.1587C39.4486 32.1587 38.3864 31.7355 37.5654 30.8892C36.7445 30.0386 36.334 28.932 36.334 27.5693C36.334 26.1305 36.7508 24.9668 37.5845 24.0781C38.4181 23.1895 39.5226 22.7451 40.8979 22.7451C42.1971 22.7451 43.2466 23.1704 44.0464 24.021C44.8504 24.8716 45.2524 25.993 45.2524 27.3853C45.2524 28.8156 44.8356 29.9688 44.002 30.8447C43.1725 31.7207 42.0892 32.1587 40.752 32.1587ZM40.8408 24.5098C40.1214 24.5098 39.5501 24.7806 39.127 25.3223C38.7038 25.8597 38.4922 26.5728 38.4922 27.4614C38.4922 28.3628 38.7038 29.0758 39.127 29.6006C39.5501 30.1253 40.1045 30.3877 40.79 30.3877C41.4967 30.3877 42.0575 30.1338 42.4722 29.626C42.8869 29.1139 43.0942 28.4051 43.0942 27.4995C43.0942 26.5558 42.8932 25.8216 42.4912 25.2969C42.0892 24.7721 41.5391 24.5098 40.8408 24.5098ZM50.6162 32.1587C49.3128 32.1587 48.2507 31.7355 47.4297 30.8892C46.6087 30.0386 46.1982 28.932 46.1982 27.5693C46.1982 26.1305 46.6151 24.9668 47.4487 24.0781C48.2824 23.1895 49.3869 22.7451 50.7622 22.7451C52.0614 22.7451 53.1108 23.1704 53.9106 24.021C54.7147 24.8716 55.1167 25.993 55.1167 27.3853C55.1167 28.8156 54.6999 29.9687 53.8662 30.8447C53.0368 31.7207 51.9535 32.1587 50.6162 32.1587ZM50.7051 24.5098C49.9857 24.5098 49.4144 24.7806 48.9912 25.3223C48.568 25.8597 48.3564 26.5728 48.3564 27.4614C48.3564 28.3628 48.568 29.0758 48.9912 29.6006C49.4144 30.1253 49.9688 30.3877 50.6543 30.3877C51.361 30.3877 51.9217 30.1338 52.3364 29.626C52.7511 29.1139 52.9585 28.4051 52.9585 27.4995C52.9585 26.5558 52.7575 25.8216 52.3555 25.2969C51.9535 24.7721 51.4033 24.5098 50.7051 24.5098ZM66.4028 30.7241H64.6953L62.6196 28.5913L64.6953 26.4077H66.4028L64.2827 28.5913L66.4028 30.7241ZM63.3179 30.7241H61.6167L59.522 28.5913L61.6167 26.4077H63.3052L61.1851 28.5913L63.3179 30.7241ZM78.1523 32H76.1274V26.5537C76.1274 25.9655 76.1528 25.3159 76.2036 24.605H76.1528C76.047 25.1636 75.9518 25.5656 75.8672 25.811L73.7344 32H72.0586L69.8877 25.8745C69.8285 25.7095 69.7332 25.2863 69.6021 24.605H69.5449C69.5999 25.5021 69.6274 26.2892 69.6274 26.9663V32H67.7803V22.8975H70.7827L72.6426 28.293C72.7907 28.7246 72.8986 29.1584 72.9663 29.5942H73.0044C73.1187 29.0907 73.2393 28.6527 73.3662 28.2803L75.2261 22.8975L78.1523 22.8975V32ZM85.6807 32H80.2217V22.8975H85.4712V24.5669H82.272V26.5918H85.249V28.2549H82.272V30.3369H85.6807V32ZM92.5615 24.5923H89.1909V32H87.1406V22.8975H92.5615V24.5923ZM101.074 32H98.8394L98.1919 29.9751H94.9546L94.3135 32H92.0918L95.4053 22.8975H97.8364L101.074 32ZM97.7222 28.4009L96.7446 25.3413C96.6727 25.1128 96.6219 24.8398 96.5923 24.5225H96.5415C96.5203 24.7891 96.4674 25.0535 96.3828 25.3159L95.3926 28.4009H97.7222ZM110.081 32H108.031V24.6875H104.26V32H102.21V22.8975H110.081V32ZM114.213 28.8643V32H112.163V22.8975H115.375C117.669 22.8975 118.815 23.8644 118.815 25.7983C118.815 26.7124 118.485 27.453 117.825 28.02C117.169 28.5828 116.291 28.8643 115.191 28.8643H114.213ZM114.213 24.4717V27.3091H115.02C116.111 27.3091 116.657 26.8309 116.657 25.8745C116.657 24.9393 116.111 24.4717 115.02 24.4717H114.213ZM123.944 32.1587C122.641 32.1587 121.579 31.7355 120.758 30.8892C119.937 30.0386 119.526 28.932 119.526 27.5693C119.526 26.1305 119.943 24.9668 120.777 24.0781C121.611 23.1895 122.715 22.7451 124.09 22.7451C125.389 22.7451 126.439 23.1704 127.239 24.021C128.043 24.8716 128.445 25.993 128.445 27.3853C128.445 28.8156 128.028 29.9687 127.194 30.8447C126.365 31.7207 125.282 32.1587 123.944 32.1587ZM124.033 24.5098C123.314 24.5098 122.743 24.7806 122.319 25.3223C121.896 25.8597 121.685 26.5728 121.685 27.4614C121.685 28.3628 121.896 29.0758 122.319 29.6006C122.743 30.1253 123.297 30.3877 123.982 30.3877C124.689 30.3877 125.25 30.1338 125.665 29.626C126.079 29.1139 126.287 28.4051 126.287 27.4995C126.287 26.5558 126.086 25.8216 125.684 25.2969C125.282 24.7721 124.731 24.5098 124.033 24.5098ZM135.37 31.0098V32.0508H133.377V31.0098H133.161C131.997 31.0098 131.073 30.667 130.387 29.9814C129.706 29.2917 129.365 28.4009 129.365 27.3091C129.365 26.2427 129.7 25.3857 130.368 24.7383C131.041 24.0866 131.964 23.7607 133.136 23.7607H133.377V22.7197H135.37V23.7607H135.605C136.786 23.7607 137.71 24.0845 138.379 24.7319C139.052 25.3794 139.388 26.2384 139.388 27.3091C139.388 28.4009 139.045 29.2917 138.36 29.9814C137.674 30.667 136.748 31.0098 135.58 31.0098H135.37ZM135.37 25.2905V29.4546H135.459C136.026 29.4546 136.47 29.2642 136.792 28.8833C137.118 28.4982 137.281 27.9904 137.281 27.3599C137.281 26.7293 137.118 26.2279 136.792 25.8555C136.47 25.4788 136.03 25.2905 135.472 25.2905H135.37ZM133.377 29.4546V25.2905H133.263C132.713 25.2905 132.275 25.4788 131.949 25.8555C131.627 26.2321 131.466 26.7336 131.466 27.3599C131.466 27.9946 131.625 28.5024 131.942 28.8833C132.264 29.2642 132.708 29.4546 133.275 29.4546H133.377ZM147.393 31.6763C146.728 31.9979 145.861 32.1587 144.79 32.1587C143.394 32.1587 142.295 31.7482 141.496 30.9272C140.696 30.1063 140.296 29.0124 140.296 27.6455C140.296 26.1898 140.744 25.0091 141.642 24.1035C142.543 23.1979 143.711 22.7451 145.146 22.7451C146.034 22.7451 146.783 22.8573 147.393 23.0815V25.0557C146.783 24.6917 146.089 24.5098 145.311 24.5098C144.456 24.5098 143.766 24.7785 143.241 25.3159C142.716 25.8534 142.454 26.5812 142.454 27.4995C142.454 28.3797 142.702 29.0822 143.197 29.6069C143.692 30.1274 144.358 30.3877 145.196 30.3877C145.996 30.3877 146.728 30.193 147.393 29.8037V31.6763ZM155.372 24.5669H152.775V32H150.719V24.5669H148.135V22.8975L155.372 22.8975V24.5669ZM164.785 32H162.849V26.998C162.849 26.4225 162.87 25.9316 162.913 25.5254H162.875C162.786 25.6989 162.633 25.9507 162.417 26.2808L158.66 32H156.597V22.8975H158.533V27.9312C158.533 28.5532 158.516 28.9701 158.482 29.1816H158.507C158.528 29.1309 158.685 28.8833 158.977 28.439L162.589 22.8975H164.785V32ZM174.288 32H172.237V24.605H170.416C169.925 28.092 169.465 30.2184 169.038 30.9844C168.611 31.7461 167.961 32.127 167.089 32.127C166.721 32.127 166.353 32.0677 165.985 31.9492V30.3115C166.23 30.3962 166.442 30.4385 166.62 30.4385C166.793 30.4385 166.945 30.3835 167.077 30.2734C167.212 30.1634 167.36 29.8714 167.521 29.3975C167.682 28.9235 167.874 28.1068 168.099 26.9473C168.327 25.7835 168.545 24.4336 168.752 22.8975H174.288V32ZM176.376 32V22.8975H178.426V26.3062H179.766C181.962 26.3062 183.06 27.1991 183.06 28.9849C183.06 29.937 182.764 30.6776 182.171 31.2065C181.579 31.7355 180.743 32 179.664 32H176.376ZM178.426 27.855V30.4385H179.353C180.386 30.4385 180.902 30.0005 180.902 29.1245C180.902 28.2782 180.398 27.855 179.391 27.855H178.426ZM190.652 28.5913L188.57 30.7241H186.869L188.982 28.5913L186.881 26.4077H188.57L190.652 28.5913ZM187.567 28.5913L185.479 30.7241H183.771L185.904 28.5913L183.784 26.4077H185.479L187.567 28.5913Z" fill="black"/>
<path d="M30.8623 56.1523C29.5716 56.1523 28.5369 55.7271 27.7583 54.8765C26.9839 54.0259 26.5967 52.9193 26.5967 51.5566C26.5967 50.0924 26.9924 48.9245 27.7837 48.0527C28.575 47.181 29.652 46.7451 31.0146 46.7451C32.2715 46.7451 33.2829 47.1683 34.0488 48.0146C34.819 48.861 35.2041 49.9676 35.2041 51.3345C35.2041 52.8198 34.8105 53.9941 34.0234 54.8574C33.2363 55.7207 32.1826 56.1523 30.8623 56.1523ZM30.9385 47.71C29.9821 47.71 29.2056 48.0549 28.6089 48.7446C28.0122 49.4344 27.7139 50.34 27.7139 51.4614C27.7139 52.5828 28.0037 53.4863 28.5835 54.1719C29.1675 54.8532 29.9271 55.1938 30.8623 55.1938C31.861 55.1938 32.6481 54.868 33.2236 54.2163C33.7992 53.5646 34.0869 52.6527 34.0869 51.4805C34.0869 50.2786 33.8076 49.3498 33.249 48.6938C32.6904 48.0379 31.9202 47.71 30.9385 47.71ZM41.7168 47.8877H38.0669V56H36.9941V46.8975H41.7168V47.8877ZM44.1924 52.5596V56H43.126V46.8975H45.627C46.6003 46.8975 47.3535 47.1344 47.8867 47.6084C48.4242 48.0824 48.6929 48.751 48.6929 49.6143C48.6929 50.4775 48.3945 51.1842 47.7979 51.7344C47.2054 52.2845 46.4035 52.5596 45.3921 52.5596H44.1924ZM44.1924 47.8623V51.5947H45.3096C46.0459 51.5947 46.6066 51.4276 46.9917 51.0933C47.381 50.7547 47.5757 50.2786 47.5757 49.665C47.5757 48.4632 46.8647 47.8623 45.4429 47.8623H44.1924ZM57.2559 56H56.1895V51.8486H51.4795V56H50.4131V46.8975H51.4795V50.8901H56.1895V46.8975H57.2559V56ZM59.8647 50.7695C59.6701 50.7695 59.5029 50.6997 59.3633 50.5601C59.2279 50.4204 59.1602 50.2533 59.1602 50.0586C59.1602 49.8639 59.2279 49.6989 59.3633 49.5635C59.5029 49.4281 59.6701 49.3604 59.8647 49.3604C60.0636 49.3604 60.2329 49.4281 60.3726 49.5635C60.5122 49.6989 60.582 49.8639 60.582 50.0586C60.582 50.2533 60.5122 50.4204 60.3726 50.5601C60.2329 50.6997 60.0636 50.7695 59.8647 50.7695ZM59.8647 56.1396C59.6701 56.1396 59.5029 56.0698 59.3633 55.9302C59.2279 55.7905 59.1602 55.6234 59.1602 55.4287C59.1602 55.234 59.2279 55.0669 59.3633 54.9272C59.5029 54.7834 59.6701 54.7114 59.8647 54.7114C60.0636 54.7114 60.2329 54.7834 60.3726 54.9272C60.5122 55.0669 60.582 55.234 60.582 55.4287C60.582 55.6234 60.5122 55.7905 60.3726 55.9302C60.2329 56.0698 60.0636 56.1396 59.8647 56.1396ZM70.9858 53.2197C70.9858 53.6641 70.9097 54.0661 70.7573 54.4258C70.605 54.7855 70.387 55.0944 70.1035 55.3525C69.8242 55.6107 69.4857 55.8096 69.0879 55.9492C68.6901 56.0889 68.2479 56.1587 67.7612 56.1587C66.9149 56.1587 66.2865 56.0317 65.876 55.7778V54.6733C66.4938 55.0711 67.1265 55.27 67.7739 55.27C68.104 55.27 68.4002 55.2214 68.6626 55.124C68.9292 55.0267 69.1556 54.8913 69.3418 54.7178C69.528 54.5443 69.6698 54.3348 69.7671 54.0894C69.8687 53.8439 69.9194 53.5752 69.9194 53.2832C69.9194 52.6908 69.7205 52.2274 69.3228 51.8931C68.925 51.5545 68.3473 51.3853 67.5898 51.3853C67.4671 51.3853 67.3381 51.3874 67.2026 51.3916C67.0672 51.3958 66.9318 51.4022 66.7964 51.4106C66.661 51.4149 66.5277 51.4212 66.3965 51.4297C66.2695 51.4382 66.1532 51.4487 66.0474 51.4614L66.3584 46.8975H70.5669V47.8369H67.2598L67.0757 50.5093C67.2111 50.5008 67.355 50.4945 67.5073 50.4902C67.6597 50.4818 67.7951 50.4775 67.9136 50.4775C68.396 50.4775 68.8276 50.541 69.2085 50.668C69.5894 50.7949 69.911 50.9769 70.1733 51.2139C70.4399 51.4466 70.641 51.7344 70.7764 52.0771C70.916 52.4157 70.9858 52.7965 70.9858 53.2197ZM76.4385 56H75.3975V48.1353C75.3171 48.2157 75.1986 48.3088 75.042 48.4146C74.8896 48.5161 74.7161 48.6177 74.5215 48.7192C74.3311 48.8208 74.1279 48.916 73.9121 49.0049C73.7005 49.0937 73.4932 49.1636 73.29 49.2144V48.1606C73.5186 48.0972 73.7598 48.0125 74.0137 47.9067C74.2718 47.7967 74.5236 47.6761 74.769 47.5449C75.0187 47.4095 75.2536 47.2699 75.4736 47.126C75.6937 46.9779 75.8841 46.834 76.0449 46.6943H76.4385V56ZM85.3379 53.1118C85.3379 53.5562 85.266 53.9645 85.1221 54.3369C84.9782 54.7093 84.7793 55.0309 84.5254 55.3018C84.2715 55.5726 83.9689 55.7842 83.6177 55.9365C83.2664 56.0846 82.8856 56.1587 82.4751 56.1587C82.0181 56.1587 81.6076 56.0635 81.2437 55.873C80.884 55.6826 80.5771 55.4097 80.3232 55.0542C80.0736 54.6945 79.8831 54.2565 79.752 53.7402C79.6208 53.224 79.5552 52.6421 79.5552 51.9946C79.5552 51.2033 79.6419 50.486 79.8154 49.8428C79.9932 49.1953 80.2428 48.6431 80.5645 48.186C80.8903 47.7248 81.2817 47.3693 81.7388 47.1196C82.1958 46.87 82.7057 46.7451 83.2686 46.7451C83.8949 46.7451 84.3984 46.8319 84.7793 47.0054V47.9893C84.3096 47.748 83.8145 47.6274 83.2939 47.6274C82.8877 47.6274 82.5216 47.7184 82.1958 47.9004C81.87 48.0824 81.5907 48.3405 81.3579 48.6748C81.1252 49.0049 80.9453 49.4048 80.8184 49.8745C80.6956 50.3442 80.6343 50.8669 80.6343 51.4424H80.6597C81.0786 50.6849 81.7705 50.3062 82.7354 50.3062C83.1331 50.3062 83.4907 50.3739 83.8081 50.5093C84.1297 50.6447 84.4027 50.8372 84.627 51.0869C84.8555 51.3324 85.0311 51.6265 85.1538 51.9692C85.2765 52.312 85.3379 52.6929 85.3379 53.1118ZM84.2715 53.2451C84.2715 52.9277 84.2313 52.6421 84.1509 52.3882C84.0705 52.1343 83.9541 51.9185 83.8018 51.7407C83.6536 51.563 83.4696 51.4276 83.2495 51.3345C83.0295 51.2371 82.7798 51.1885 82.5005 51.1885C82.2424 51.1885 82.0033 51.2371 81.7832 51.3345C81.5632 51.4318 81.3727 51.5651 81.2119 51.7344C81.0511 51.8994 80.9242 52.0941 80.8311 52.3184C80.7422 52.5384 80.6978 52.7733 80.6978 53.0229C80.6978 53.3361 80.7422 53.6302 80.8311 53.9053C80.9199 54.1761 81.0448 54.4131 81.2056 54.6162C81.3664 54.8193 81.5568 54.9801 81.7769 55.0986C82.0011 55.2129 82.2487 55.27 82.5195 55.27C82.7819 55.27 83.021 55.2214 83.2368 55.124C83.4526 55.0225 83.6367 54.8828 83.7891 54.7051C83.9414 54.5273 84.0599 54.3158 84.1445 54.0703C84.2292 53.8206 84.2715 53.5456 84.2715 53.2451ZM92.2695 47.5005C92.1299 47.7417 91.9606 48.0422 91.7617 48.4019C91.5671 48.7616 91.3597 49.1657 91.1396 49.6143C90.9196 50.0628 90.6953 50.5452 90.4668 51.0615C90.2383 51.5778 90.0246 52.111 89.8257 52.6611C89.6268 53.2113 89.4512 53.7699 89.2988 54.3369C89.1507 54.8997 89.0428 55.4541 88.9751 56H87.8579C87.9341 55.4583 88.0505 54.9061 88.207 54.3433C88.3678 53.7762 88.5477 53.2218 88.7466 52.6802C88.9497 52.1343 89.1634 51.6095 89.3877 51.106C89.612 50.6024 89.8299 50.139 90.0415 49.7158C90.2531 49.2926 90.4456 48.9202 90.6191 48.5986C90.7969 48.2728 90.9386 48.0189 91.0444 47.8369H86.4805V46.8975H92.2695V47.5005ZM99.2773 47.5005C99.1377 47.7417 98.9684 48.0422 98.7695 48.4019C98.5749 48.7616 98.3675 49.1657 98.1475 49.6143C97.9274 50.0628 97.7031 50.5452 97.4746 51.0615C97.2461 51.5778 97.0324 52.111 96.8335 52.6611C96.6346 53.2113 96.459 53.7699 96.3066 54.3369C96.1585 54.8997 96.0506 55.4541 95.9829 56H94.8657C94.9419 55.4583 95.0583 54.9061 95.2148 54.3433C95.3757 53.7762 95.5555 53.2218 95.7544 52.6802C95.9575 52.1343 96.1712 51.6095 96.3955 51.106C96.6198 50.6024 96.8377 50.139 97.0493 49.7158C97.2609 49.2926 97.4535 48.9202 97.627 48.5986C97.8047 48.2728 97.9465 48.0189 98.0522 47.8369H93.4883V46.8975H99.2773V47.5005ZM105.27 46.8975V52.9087H106.438V53.8608H105.27V56H104.241V53.8608H99.9629V52.9595C100.361 52.5109 100.763 52.0327 101.169 51.5249C101.575 51.0129 101.962 50.4945 102.331 49.9697C102.703 49.445 103.046 48.9224 103.359 48.4019C103.676 47.8771 103.943 47.3757 104.159 46.8975H105.27ZM101.137 52.9087H104.241V48.4526C103.924 49.007 103.623 49.5021 103.34 49.938C103.056 50.3739 102.785 50.7695 102.527 51.125C102.273 51.4805 102.03 51.8021 101.797 52.0898C101.565 52.3776 101.345 52.6506 101.137 52.9087ZM113.369 53.1118C113.369 53.5562 113.297 53.9645 113.153 54.3369C113.009 54.7093 112.811 55.0309 112.557 55.3018C112.303 55.5726 112 55.7842 111.649 55.9365C111.298 56.0846 110.917 56.1587 110.506 56.1587C110.049 56.1587 109.639 56.0635 109.275 55.873C108.915 55.6826 108.608 55.4097 108.354 55.0542C108.105 54.6945 107.914 54.2565 107.783 53.7402C107.652 53.224 107.586 52.6421 107.586 51.9946C107.586 51.2033 107.673 50.486 107.847 49.8428C108.024 49.1953 108.274 48.6431 108.596 48.186C108.922 47.7248 109.313 47.3693 109.77 47.1196C110.227 46.87 110.737 46.7451 111.3 46.7451C111.926 46.7451 112.43 46.8319 112.811 47.0054V47.9893C112.341 47.748 111.846 47.6274 111.325 47.6274C110.919 47.6274 110.553 47.7184 110.227 47.9004C109.901 48.0824 109.622 48.3405 109.389 48.6748C109.156 49.0049 108.977 49.4048 108.85 49.8745C108.727 50.3442 108.666 50.8669 108.666 51.4424H108.691C109.11 50.6849 109.802 50.3062 110.767 50.3062C111.164 50.3062 111.522 50.3739 111.839 50.5093C112.161 50.6447 112.434 50.8372 112.658 51.0869C112.887 51.3324 113.062 51.6265 113.185 51.9692C113.308 52.312 113.369 52.6929 113.369 53.1118ZM112.303 53.2451C112.303 52.9277 112.263 52.6421 112.182 52.3882C112.102 52.1343 111.985 51.9185 111.833 51.7407C111.685 51.563 111.501 51.4276 111.281 51.3345C111.061 51.2371 110.811 51.1885 110.532 51.1885C110.274 51.1885 110.035 51.2371 109.814 51.3345C109.594 51.4318 109.404 51.5651 109.243 51.7344C109.082 51.8994 108.955 52.0941 108.862 52.3184C108.773 52.5384 108.729 52.7733 108.729 53.0229C108.729 53.3361 108.773 53.6302 108.862 53.9053C108.951 54.1761 109.076 54.4131 109.237 54.6162C109.398 54.8193 109.588 54.9801 109.808 55.0986C110.032 55.2129 110.28 55.27 110.551 55.27C110.813 55.27 111.052 55.2214 111.268 55.124C111.484 55.0225 111.668 54.8828 111.82 54.7051C111.973 54.5273 112.091 54.3158 112.176 54.0703C112.26 53.8206 112.303 53.5456 112.303 53.2451ZM118.79 49.2842C118.79 49.0049 118.746 48.7616 118.657 48.5542C118.572 48.3468 118.454 48.1755 118.301 48.04C118.153 47.9004 117.978 47.7967 117.774 47.729C117.571 47.6613 117.351 47.6274 117.114 47.6274C116.911 47.6274 116.712 47.6549 116.518 47.71C116.323 47.765 116.132 47.8411 115.946 47.9385C115.764 48.0358 115.587 48.1522 115.413 48.2876C115.244 48.423 115.085 48.5732 114.937 48.7383V47.6211C115.229 47.3376 115.555 47.1217 115.915 46.9736C116.278 46.8213 116.721 46.7451 117.241 46.7451C117.614 46.7451 117.958 46.8001 118.276 46.9102C118.593 47.016 118.868 47.1725 119.101 47.3799C119.334 47.5872 119.516 47.8433 119.647 48.1479C119.782 48.4526 119.85 48.8018 119.85 49.1953C119.85 49.555 119.808 49.8809 119.723 50.1729C119.643 50.4648 119.518 50.7399 119.349 50.998C119.184 51.2562 118.974 51.5037 118.72 51.7407C118.466 51.9777 118.168 52.2189 117.825 52.4644C117.398 52.769 117.044 53.0293 116.765 53.2451C116.49 53.4609 116.27 53.6641 116.105 53.8545C115.944 54.0407 115.83 54.229 115.762 54.4194C115.699 54.6056 115.667 54.8215 115.667 55.0669H120.199V56H114.582V55.5493C114.582 55.16 114.624 54.8172 114.708 54.521C114.793 54.2248 114.933 53.9434 115.127 53.6768C115.322 53.4102 115.576 53.1436 115.889 52.877C116.207 52.6104 116.594 52.3099 117.051 51.9756C117.381 51.7386 117.656 51.5122 117.876 51.2964C118.1 51.0806 118.28 50.8647 118.416 50.6489C118.551 50.4331 118.646 50.2152 118.701 49.9951C118.76 49.7708 118.79 49.5339 118.79 49.2842ZM126.947 53.4229C126.947 53.8333 126.868 54.2078 126.712 54.5464C126.56 54.8807 126.342 55.1685 126.058 55.4097C125.779 55.6466 125.442 55.8307 125.049 55.9619C124.655 56.0931 124.222 56.1587 123.748 56.1587C122.88 56.1587 122.19 55.9937 121.678 55.6636V54.5464C122.292 55.0288 122.994 55.27 123.786 55.27C124.103 55.27 124.389 55.2298 124.643 55.1494C124.901 55.069 125.121 54.9526 125.303 54.8003C125.489 54.6479 125.631 54.4639 125.728 54.248C125.83 54.0322 125.88 53.7889 125.88 53.5181C125.88 52.3289 125.034 51.7344 123.341 51.7344H122.586V50.8521H123.303C124.801 50.8521 125.55 50.2935 125.55 49.1763C125.55 48.1437 124.979 47.6274 123.836 47.6274C123.193 47.6274 122.59 47.8433 122.027 48.2749V47.2656C122.607 46.9186 123.297 46.7451 124.097 46.7451C124.478 46.7451 124.822 46.798 125.131 46.9038C125.44 47.0096 125.705 47.1577 125.925 47.3481C126.145 47.5386 126.314 47.7671 126.433 48.0337C126.555 48.3003 126.617 48.5944 126.617 48.916C126.617 50.1136 126.012 50.8838 124.801 51.2266V51.252C125.11 51.2858 125.396 51.362 125.658 51.4805C125.921 51.5947 126.147 51.745 126.337 51.9312C126.528 52.1174 126.676 52.3374 126.782 52.5913C126.892 52.841 126.947 53.1182 126.947 53.4229ZM134.316 47.5005C134.177 47.7417 134.007 48.0422 133.809 48.4019C133.614 48.7616 133.407 49.1657 133.187 49.6143C132.966 50.0628 132.742 50.5452 132.514 51.0615C132.285 51.5778 132.071 52.111 131.873 52.6611C131.674 53.2113 131.498 53.7699 131.346 54.3369C131.198 54.8997 131.09 55.4541 131.022 56H129.905C129.981 55.4583 130.097 54.9061 130.254 54.3433C130.415 53.7762 130.595 53.2218 130.793 52.6802C130.997 52.1343 131.21 51.6095 131.435 51.106C131.659 50.6024 131.877 50.139 132.088 49.7158C132.3 49.2926 132.493 48.9202 132.666 48.5986C132.844 48.2728 132.986 48.0189 133.091 47.8369L128.527 47.8369V46.8975L134.316 46.8975V47.5005ZM139.509 56H138.468V48.1353C138.387 48.2157 138.269 48.3088 138.112 48.4146C137.96 48.5161 137.786 48.6177 137.592 48.7192C137.401 48.8208 137.198 48.916 136.982 49.0049C136.771 49.0937 136.563 49.1636 136.36 49.2144V48.1606C136.589 48.0972 136.83 48.0125 137.084 47.9067C137.342 47.7967 137.594 47.6761 137.839 47.5449C138.089 47.4095 138.324 47.2699 138.544 47.126C138.764 46.9779 138.954 46.834 139.115 46.6943H139.509V56ZM147.316 46.8975V52.9087H148.484V53.8608H147.316V56H146.288V53.8608H142.01V52.9595C142.408 52.5109 142.81 52.0327 143.216 51.5249C143.622 51.0129 144.009 50.4945 144.377 49.9697C144.75 49.445 145.093 48.9224 145.406 48.4019C145.723 47.8771 145.99 47.3757 146.206 46.8975H147.316ZM143.184 52.9087H146.288V48.4526C145.971 49.007 145.67 49.5021 145.387 49.938C145.103 50.3739 144.832 50.7695 144.574 51.125C144.32 51.4805 144.077 51.8021 143.844 52.0898C143.611 52.3776 143.391 52.6506 143.184 52.9087ZM149.5 53.4609C149.5 53.2197 149.538 52.9785 149.614 52.7373C149.69 52.4919 149.798 52.2633 149.938 52.0518C150.082 51.8402 150.257 51.6476 150.465 51.4741C150.676 51.3006 150.916 51.1631 151.182 51.0615C150.789 50.8415 150.475 50.5601 150.243 50.2173C150.01 49.8703 149.894 49.4873 149.894 49.0684C149.894 48.734 149.957 48.4251 150.084 48.1416C150.215 47.8581 150.395 47.6126 150.624 47.4053C150.852 47.1979 151.123 47.0371 151.436 46.9229C151.749 46.8044 152.088 46.7451 152.452 46.7451C152.82 46.7451 153.16 46.8044 153.474 46.9229C153.787 47.0413 154.058 47.2043 154.286 47.4116C154.515 47.619 154.692 47.8644 154.819 48.1479C154.946 48.4315 155.01 48.7383 155.01 49.0684C155.01 49.4873 154.893 49.8703 154.661 50.2173C154.428 50.5601 154.119 50.8415 153.734 51.0615C153.996 51.1631 154.231 51.3006 154.438 51.4741C154.646 51.6476 154.819 51.8402 154.959 52.0518C155.103 52.2633 155.213 52.4919 155.289 52.7373C155.365 52.9785 155.403 53.2197 155.403 53.4609C155.403 53.8587 155.331 54.2227 155.188 54.5527C155.044 54.8828 154.84 55.1663 154.578 55.4033C154.32 55.6361 154.009 55.818 153.645 55.9492C153.285 56.0804 152.888 56.146 152.452 56.146C152.02 56.146 151.624 56.0804 151.265 55.9492C150.905 55.818 150.594 55.6361 150.332 55.4033C150.069 55.1663 149.864 54.8828 149.716 54.5527C149.572 54.2227 149.5 53.8587 149.5 53.4609ZM150.63 53.3721C150.63 53.6556 150.672 53.9116 150.757 54.1401C150.846 54.3687 150.968 54.5633 151.125 54.7241C151.286 54.8849 151.478 55.0098 151.703 55.0986C151.931 55.1833 152.183 55.2256 152.458 55.2256C152.725 55.2256 152.97 55.1812 153.194 55.0923C153.419 55.0034 153.611 54.8786 153.772 54.7178C153.937 54.557 154.064 54.3623 154.153 54.1338C154.246 53.9053 154.292 53.6514 154.292 53.3721C154.292 53.1182 154.248 52.8812 154.159 52.6611C154.075 52.4368 153.952 52.2401 153.791 52.0708C153.63 51.9015 153.438 51.7682 153.213 51.6709C152.989 51.5736 152.737 51.5249 152.458 51.5249C152.196 51.5249 151.952 51.5715 151.728 51.6646C151.508 51.7534 151.315 51.8804 151.15 52.0454C150.99 52.2062 150.863 52.4009 150.77 52.6294C150.676 52.8537 150.63 53.1012 150.63 53.3721ZM150.954 49.1509C150.954 49.3667 150.992 49.5677 151.068 49.7539C151.148 49.9359 151.256 50.0967 151.392 50.2363C151.531 50.3717 151.692 50.4797 151.874 50.5601C152.056 50.6362 152.251 50.6743 152.458 50.6743C152.665 50.6743 152.86 50.6341 153.042 50.5537C153.228 50.4733 153.389 50.3654 153.524 50.23C153.66 50.0903 153.768 49.9295 153.848 49.7476C153.929 49.5614 153.969 49.3625 153.969 49.1509C153.969 48.9308 153.929 48.7277 153.848 48.5415C153.772 48.3553 153.666 48.1945 153.531 48.0591C153.395 47.9237 153.235 47.8179 153.048 47.7417C152.866 47.6613 152.67 47.6211 152.458 47.6211C152.234 47.6211 152.028 47.6613 151.842 47.7417C151.66 47.8221 151.502 47.9321 151.366 48.0718C151.235 48.2072 151.133 48.368 151.062 48.5542C150.99 48.7404 150.954 48.9393 150.954 49.1509Z" fill="black"/>
<path d="M30.5957 80H29.5547V72.1353C29.4743 72.2157 29.3558 72.3088 29.1992 72.4146C29.0469 72.5161 28.8734 72.6177 28.6787 72.7192C28.4883 72.8208 28.2852 72.916 28.0693 73.0049C27.8577 73.0938 27.6504 73.1636 27.4473 73.2144V72.1606C27.6758 72.0972 27.917 72.0125 28.1709 71.9067C28.429 71.7967 28.6808 71.6761 28.9263 71.5449C29.1759 71.4095 29.4108 71.2699 29.6309 71.126C29.8509 70.9779 30.0413 70.834 30.2021 70.6943H30.5957V80ZM37.9082 73.2842C37.9082 73.0049 37.8638 72.7616 37.7749 72.5542C37.6903 72.3468 37.5718 72.1755 37.4194 72.04C37.2713 71.9004 37.0957 71.7967 36.8926 71.729C36.6895 71.6613 36.4694 71.6274 36.2324 71.6274C36.0293 71.6274 35.8304 71.6549 35.6357 71.71C35.4411 71.765 35.2507 71.8411 35.0645 71.9385C34.8825 72.0358 34.7048 72.1522 34.5312 72.2876C34.362 72.423 34.2033 72.5732 34.0552 72.7383V71.6211C34.3472 71.3376 34.673 71.1217 35.0327 70.9736C35.3966 70.8213 35.8389 70.7451 36.3594 70.7451C36.7318 70.7451 37.0767 70.8001 37.394 70.9102C37.7114 71.016 37.9865 71.1725 38.2192 71.3799C38.452 71.5872 38.634 71.8433 38.7651 72.1479C38.9006 72.4526 38.9683 72.8018 38.9683 73.1953C38.9683 73.555 38.9259 73.8809 38.8413 74.1729C38.7609 74.4648 38.6361 74.7399 38.4668 74.998C38.3018 75.2562 38.0923 75.5037 37.8384 75.7407C37.5845 75.9777 37.2861 76.2189 36.9434 76.4644C36.516 76.769 36.1626 77.0293 35.8833 77.2451C35.6082 77.4609 35.3882 77.6641 35.2231 77.8545C35.0623 78.0407 34.9481 78.229 34.8804 78.4194C34.8169 78.6056 34.7852 78.8215 34.7852 79.0669H39.3174V80H33.6997V79.5493C33.6997 79.16 33.742 78.8172 33.8267 78.521C33.9113 78.2248 34.0509 77.9434 34.2456 77.6768C34.4403 77.4102 34.6942 77.1436 35.0073 76.877C35.3247 76.6104 35.7119 76.3099 36.1689 75.9756C36.499 75.7386 36.7741 75.5122 36.9941 75.2964C37.2184 75.0806 37.3983 74.8647 37.5337 74.6489C37.6691 74.4331 37.7643 74.2152 37.8193 73.9951C37.8786 73.7708 37.9082 73.5339 37.9082 73.2842ZM46.3887 74.9028C46.3887 75.7365 46.3062 76.4792 46.1411 77.1309C45.9761 77.7783 45.7349 78.3285 45.4175 78.7812C45.1001 79.2298 44.7129 79.5726 44.2559 79.8096C43.7988 80.0423 43.2783 80.1587 42.6943 80.1587C42.0934 80.1587 41.5645 80.0529 41.1074 79.8413V78.8447C41.611 79.1283 42.1484 79.27 42.7197 79.27C43.1302 79.27 43.4963 79.1854 43.8179 79.0161C44.1437 78.8468 44.4188 78.6014 44.6431 78.2798C44.8674 77.9539 45.0387 77.554 45.1572 77.0801C45.2757 76.6061 45.335 76.0623 45.335 75.4487H45.3096C44.9202 76.2316 44.2432 76.623 43.2783 76.623C42.889 76.623 42.5314 76.5553 42.2056 76.4199C41.8797 76.2803 41.5983 76.0856 41.3613 75.8359C41.1243 75.582 40.9403 75.2816 40.8091 74.9346C40.6779 74.5876 40.6123 74.2046 40.6123 73.7856C40.6123 73.3371 40.6842 72.9266 40.8281 72.5542C40.9762 72.1818 41.1794 71.8623 41.4375 71.5957C41.6999 71.3249 42.0088 71.1154 42.3643 70.9673C42.724 70.8192 43.1154 70.7451 43.5386 70.7451C43.9956 70.7451 44.3997 70.8382 44.751 71.0244C45.1064 71.2064 45.4048 71.4751 45.646 71.8306C45.8872 72.1818 46.0713 72.6156 46.1982 73.1318C46.3252 73.6481 46.3887 74.2384 46.3887 74.9028ZM45.2651 73.9697C45.2651 73.6185 45.2186 73.299 45.1255 73.0112C45.0366 72.7235 44.9118 72.478 44.751 72.2749C44.5902 72.0675 44.3976 71.9089 44.1733 71.7988C43.9533 71.6846 43.7121 71.6274 43.4497 71.6274C43.2 71.6274 42.9673 71.6782 42.7515 71.7798C42.5356 71.8771 42.3473 72.0168 42.1865 72.1987C42.0299 72.3765 41.9051 72.5902 41.812 72.8398C41.7231 73.0853 41.6787 73.354 41.6787 73.646C41.6787 73.9676 41.721 74.2554 41.8057 74.5093C41.8945 74.7632 42.0194 74.979 42.1802 75.1567C42.341 75.3302 42.5335 75.4635 42.7578 75.5566C42.9863 75.6497 43.2381 75.6963 43.5132 75.6963C43.7544 75.6963 43.9808 75.6519 44.1924 75.563C44.4082 75.4699 44.5944 75.3472 44.751 75.1948C44.9118 75.0382 45.0366 74.8563 45.1255 74.6489C45.2186 74.4373 45.2651 74.2109 45.2651 73.9697ZM53.0728 77.4229C53.0728 77.8333 52.9945 78.2078 52.8379 78.5464C52.6855 78.8807 52.4676 79.1685 52.1841 79.4097C51.9048 79.6466 51.5684 79.8307 51.1748 79.9619C50.7812 80.0931 50.3475 80.1587 49.8735 80.1587C49.006 80.1587 48.3162 79.9937 47.8042 79.6636V78.5464C48.4178 79.0288 49.1203 79.27 49.9116 79.27C50.229 79.27 50.5146 79.2298 50.7686 79.1494C51.0267 79.069 51.2467 78.9526 51.4287 78.8003C51.6149 78.6479 51.7567 78.4639 51.854 78.248C51.9556 78.0322 52.0063 77.7889 52.0063 77.5181C52.0063 76.3289 51.16 75.7344 49.4673 75.7344H48.7119V74.8521H49.4292C50.9272 74.8521 51.6763 74.2935 51.6763 73.1763C51.6763 72.1437 51.105 71.6274 49.9624 71.6274C49.3192 71.6274 48.7161 71.8433 48.1533 72.2749V71.2656C48.7331 70.9186 49.4229 70.7451 50.2227 70.7451C50.6035 70.7451 50.9484 70.798 51.2573 70.9038C51.5662 71.0096 51.8307 71.1577 52.0508 71.3481C52.2708 71.5386 52.4401 71.7671 52.5586 72.0337C52.6813 72.3003 52.7427 72.5944 52.7427 72.916C52.7427 74.1136 52.1375 74.8838 50.9272 75.2266V75.252C51.2362 75.2858 51.5218 75.362 51.7842 75.4805C52.0465 75.5947 52.2729 75.745 52.4634 75.9312C52.6538 76.1174 52.8019 76.3374 52.9077 76.5913C53.0177 76.841 53.0728 77.1182 53.0728 77.4229ZM60.0806 77.4229C60.0806 77.8333 60.0023 78.2078 59.8457 78.5464C59.6934 78.8807 59.4754 79.1685 59.1919 79.4097C58.9126 79.6466 58.5762 79.8307 58.1826 79.9619C57.7891 80.0931 57.3553 80.1587 56.8813 80.1587C56.0138 80.1587 55.3241 79.9937 54.812 79.6636V78.5464C55.4256 79.0288 56.1281 79.27 56.9194 79.27C57.2368 79.27 57.5225 79.2298 57.7764 79.1494C58.0345 79.069 58.2546 78.9526 58.4365 78.8003C58.6227 78.6479 58.7645 78.4639 58.8618 78.248C58.9634 78.0322 59.0142 77.7889 59.0142 77.5181C59.0142 76.3289 58.1678 75.7344 56.4751 75.7344H55.7197V74.8521H56.437C57.9351 74.8521 58.6841 74.2935 58.6841 73.1763C58.6841 72.1437 58.1128 71.6274 56.9702 71.6274C56.327 71.6274 55.724 71.8433 55.1611 72.2749V71.2656C55.7409 70.9186 56.4307 70.7451 57.2305 70.7451C57.6113 70.7451 57.9562 70.798 58.2651 70.9038C58.5741 71.0096 58.8385 71.1577 59.0586 71.3481C59.2786 71.5386 59.4479 71.7671 59.5664 72.0337C59.6891 72.3003 59.7505 72.5944 59.7505 72.916C59.7505 74.1136 59.1453 74.8838 57.9351 75.2266V75.252C58.244 75.2858 58.5296 75.362 58.792 75.4805C59.0544 75.5947 59.2808 75.745 59.4712 75.9312C59.6616 76.1174 59.8097 76.3374 59.9155 76.5913C60.0256 76.841 60.0806 77.1182 60.0806 77.4229ZM67.4502 71.5005C67.3105 71.7417 67.1413 72.0422 66.9424 72.4019C66.7477 72.7616 66.5404 73.1657 66.3203 73.6143C66.1003 74.0628 65.876 74.5452 65.6475 75.0615C65.4189 75.5778 65.2052 76.111 65.0063 76.6611C64.8075 77.2113 64.6318 77.7699 64.4795 78.3369C64.3314 78.8997 64.2235 79.4541 64.1558 80H63.0386C63.1147 79.4583 63.2311 78.9061 63.3877 78.3433C63.5485 77.7762 63.7284 77.2218 63.9272 76.6802C64.1304 76.1343 64.3441 75.6095 64.5684 75.106C64.7926 74.6024 65.0106 74.139 65.2222 73.7158C65.4338 73.2926 65.6263 72.9202 65.7998 72.5986C65.9775 72.2728 66.1193 72.0189 66.2251 71.8369H61.6611V70.8975H67.4502V71.5005ZM70.0527 78.5527L69.0371 81.6758H68.2944L69.0371 78.5527H70.0527ZM84.9062 80H83.8462V73.8936C83.8462 73.4111 83.8758 72.8208 83.9351 72.1226H83.9097C83.8081 72.533 83.7171 72.8271 83.6367 73.0049L80.5264 80H80.0059L76.9019 73.0557C76.813 72.8525 76.722 72.5415 76.6289 72.1226H76.6035C76.6374 72.4865 76.6543 73.0811 76.6543 73.9062V80H75.626V70.8975H77.0352L79.8281 77.2451C80.0439 77.7318 80.1836 78.0957 80.2471 78.3369H80.2852C80.4671 77.8376 80.6131 77.4652 80.7231 77.2197L83.5732 70.8975H84.9062V80ZM89.8828 80.1523C88.9222 80.1523 88.1541 79.8498 87.5786 79.2446C87.0073 78.6353 86.7217 77.8291 86.7217 76.8262C86.7217 75.7344 87.02 74.8817 87.6167 74.2681C88.2134 73.6545 89.0195 73.3477 90.0352 73.3477C91.0042 73.3477 91.7596 73.646 92.3013 74.2427C92.8472 74.8394 93.1201 75.6667 93.1201 76.7246C93.1201 77.7614 92.826 78.5929 92.2378 79.2192C91.6538 79.8413 90.8688 80.1523 89.8828 80.1523ZM89.959 74.2236C89.2904 74.2236 88.7614 74.4521 88.3721 74.9092C87.9827 75.362 87.7881 75.9883 87.7881 76.7881C87.7881 77.5583 87.9849 78.1655 88.3784 78.6099C88.772 79.0542 89.2988 79.2764 89.959 79.2764C90.6318 79.2764 91.1481 79.0584 91.5078 78.6226C91.8717 78.1867 92.0537 77.5667 92.0537 76.7627C92.0537 75.9502 91.8717 75.3239 91.5078 74.8838C91.1481 74.4437 90.6318 74.2236 89.959 74.2236ZM99.2139 79.7017C98.7145 80.0021 98.1221 80.1523 97.4365 80.1523C96.5098 80.1523 95.7607 79.8519 95.1895 79.251C94.6224 78.6458 94.3389 77.863 94.3389 76.9023C94.3389 75.8317 94.6457 74.9727 95.2593 74.3252C95.8729 73.6735 96.6917 73.3477 97.7158 73.3477C98.2871 73.3477 98.7907 73.4535 99.2266 73.665V74.7314C98.7441 74.3929 98.2279 74.2236 97.6777 74.2236C97.0133 74.2236 96.4674 74.4627 96.04 74.9409C95.6169 75.4149 95.4053 76.0391 95.4053 76.8135C95.4053 77.5752 95.6042 78.1761 96.002 78.6162C96.404 79.0563 96.9414 79.2764 97.6143 79.2764C98.1813 79.2764 98.7145 79.0881 99.2139 78.7114V79.7017ZM106.184 80H104.724L101.854 76.877H101.829V80H100.788V73.5L101.829 73.5V76.4771H101.854L104.584 73.5H105.949L102.934 76.6357L106.184 80ZM107.25 80V73.5H110.081C110.72 73.5 111.224 73.6418 111.592 73.9253C111.964 74.2088 112.15 74.596 112.15 75.0869C112.15 75.929 111.736 76.4411 110.906 76.623C111.901 76.75 112.398 77.2515 112.398 78.1274C112.398 78.6564 112.193 79.1007 111.782 79.4604C111.376 79.8201 110.87 80 110.265 80H107.25ZM108.291 74.3887V76.2168H109.853C110.69 76.2168 111.109 75.891 111.109 75.2393C111.109 74.6722 110.733 74.3887 109.979 74.3887H108.291ZM108.291 77.1055V79.1113H110.094C110.936 79.1113 111.357 78.7707 111.357 78.0894C111.357 77.4334 110.885 77.1055 109.941 77.1055H108.291ZM118.796 80H117.755V78.9844H117.73C117.277 79.763 116.611 80.1523 115.73 80.1523C115.083 80.1523 114.575 79.981 114.207 79.6382C113.843 79.2954 113.661 78.8405 113.661 78.2734C113.661 77.0589 114.376 76.3522 115.807 76.1533L117.755 75.8804C117.755 74.7759 117.309 74.2236 116.416 74.2236C115.633 74.2236 114.926 74.4902 114.296 75.0234V73.957C114.935 73.5508 115.671 73.3477 116.505 73.3477C118.033 73.3477 118.796 74.1559 118.796 75.7725V80ZM117.755 76.7119L116.188 76.9277C115.705 76.9954 115.341 77.116 115.096 77.2896C114.85 77.4588 114.728 77.7614 114.728 78.1973C114.728 78.5146 114.84 78.7749 115.064 78.978C115.292 79.1769 115.595 79.2764 115.972 79.2764C116.488 79.2764 116.913 79.0965 117.248 78.7368C117.586 78.3729 117.755 77.9137 117.755 77.3594V76.7119ZM121.71 78.5527L120.694 81.6758H119.952L120.694 78.5527H121.71ZM132.317 73.5L129.327 81.041C128.794 82.3867 128.045 83.0596 127.08 83.0596C126.809 83.0596 126.583 83.0321 126.401 82.9771V82.0439C126.625 82.1201 126.83 82.1582 127.017 82.1582C127.541 82.1582 127.935 81.8451 128.197 81.2187L128.718 79.9873L126.179 73.5H127.334L129.092 78.502C129.113 78.5654 129.158 78.7305 129.226 78.9971H129.264C129.285 78.8955 129.327 78.7347 129.391 78.5146L131.238 73.5H132.317ZM138.182 80H137.147V74.3823H135.637C135.463 76.4855 135.165 77.9624 134.742 78.813C134.323 79.6636 133.758 80.0889 133.047 80.0889C132.831 80.0889 132.645 80.0592 132.488 80V79.105C132.636 79.1812 132.797 79.2192 132.971 79.2192C133.902 79.2192 134.5 77.3128 134.767 73.5H138.182V80ZM145.742 80H144.803V74.814C144.71 74.9959 144.568 75.252 144.377 75.582L141.375 80H140.296V73.5H141.248V78.6226C141.299 78.4998 141.409 78.2904 141.578 77.9941L144.663 73.5H145.742V80ZM154.204 82.3677H153.309V80H147.85V73.5H148.891V79.1177H152.204V73.5H153.245V79.1177H154.204V82.3677ZM160.31 80H159.269V78.9844H159.244C158.791 79.763 158.124 80.1523 157.244 80.1523C156.597 80.1523 156.089 79.981 155.721 79.6382C155.357 79.2954 155.175 78.8405 155.175 78.2734C155.175 77.0589 155.89 76.3522 157.32 76.1533L159.269 75.8804C159.269 74.7759 158.823 74.2236 157.93 74.2236C157.147 74.2236 156.44 74.4902 155.81 75.0234V73.957C156.449 73.5508 157.185 73.3477 158.019 73.3477C159.546 73.3477 160.31 74.1559 160.31 75.7725V80ZM159.269 76.7119L157.701 76.9277C157.219 76.9954 156.855 77.116 156.609 77.2896C156.364 77.4588 156.241 77.7614 156.241 78.1973C156.241 78.5146 156.353 78.7749 156.578 78.978C156.806 79.1769 157.109 79.2764 157.485 79.2764C158.002 79.2764 158.427 79.0965 158.761 78.7368C159.1 78.3729 159.269 77.9137 159.269 77.3594V76.7119ZM172.313 80H170.828L167.312 75.8359C167.18 75.6794 167.1 75.5736 167.07 75.5186H167.045V80H165.979V70.8975H167.045V75.1758H167.07C167.13 75.0827 167.21 74.979 167.312 74.8647L170.714 70.8975H172.041L168.137 75.2646L172.313 80ZM174.446 79.0605H174.421V82.9897H173.38V73.5H174.421V74.6426H174.446C174.958 73.7793 175.707 73.3477 176.693 73.3477C177.531 73.3477 178.185 73.6396 178.655 74.2236C179.125 74.8034 179.359 75.582 179.359 76.5596C179.359 77.6471 179.095 78.5189 178.566 79.1748C178.037 79.8265 177.313 80.1523 176.395 80.1523C175.553 80.1523 174.903 79.7884 174.446 79.0605ZM174.421 76.439V77.3467C174.421 77.8841 174.594 78.3411 174.941 78.7178C175.293 79.0902 175.737 79.2764 176.274 79.2764C176.905 79.2764 177.398 79.0352 177.753 78.5527C178.113 78.0703 178.293 77.3996 178.293 76.5405C178.293 75.8169 178.126 75.2498 177.792 74.8394C177.457 74.4289 177.004 74.2236 176.433 74.2236C175.828 74.2236 175.341 74.4352 174.973 74.8584C174.605 75.2773 174.421 75.8042 174.421 76.439ZM185.675 80H184.634V78.9844H184.609C184.156 79.763 183.49 80.1523 182.609 80.1523C181.962 80.1523 181.454 79.981 181.086 79.6382C180.722 79.2954 180.54 78.8405 180.54 78.2734C180.54 77.0589 181.255 76.3522 182.686 76.1533L184.634 75.8804C184.634 74.7759 184.188 74.2236 183.295 74.2236C182.512 74.2236 181.805 74.4902 181.175 75.0234V73.957C181.814 73.5508 182.55 73.3477 183.384 73.3477C184.911 73.3477 185.675 74.1559 185.675 75.7725V80ZM184.634 76.7119L183.066 76.9277C182.584 76.9954 182.22 77.116 181.975 77.2896C181.729 77.4588 181.606 77.7614 181.606 78.1973C181.606 78.5146 181.719 78.7749 181.943 78.978C182.171 79.1769 182.474 79.2764 182.851 79.2764C183.367 79.2764 183.792 79.0965 184.126 78.7368C184.465 78.3729 184.634 77.9137 184.634 77.3594V76.7119ZM192.067 79.7017C191.568 80.0021 190.976 80.1523 190.29 80.1523C189.363 80.1523 188.614 79.8519 188.043 79.251C187.476 78.6458 187.192 77.863 187.192 76.9023C187.192 75.8317 187.499 74.9727 188.113 74.3252C188.726 73.6735 189.545 73.3477 190.569 73.3477C191.141 73.3477 191.644 73.4535 192.08 73.665V74.7314C191.598 74.3929 191.081 74.2236 190.531 74.2236C189.867 74.2236 189.321 74.4627 188.894 74.9409C188.47 75.4149 188.259 76.0391 188.259 76.8135C188.259 77.5752 188.458 78.1761 188.855 78.6162C189.257 79.0563 189.795 79.2764 190.468 79.2764C191.035 79.2764 191.568 79.0881 192.067 78.7114V79.7017ZM199.037 80H197.996V77.0483H194.683V80H193.642V73.5H194.683V76.166H197.996V73.5H199.037V80ZM205.797 80H204.756V78.9844H204.731C204.278 79.763 203.612 80.1523 202.731 80.1523C202.084 80.1523 201.576 79.981 201.208 79.6382C200.844 79.2954 200.662 78.8405 200.662 78.2734C200.662 77.0589 201.377 76.3522 202.808 76.1533L204.756 75.8804C204.756 74.7759 204.31 74.2236 203.417 74.2236C202.634 74.2236 201.927 74.4902 201.297 75.0234V73.957C201.936 73.5508 202.672 73.3477 203.506 73.3477C205.034 73.3477 205.797 74.1559 205.797 75.7725V80ZM204.756 76.7119L203.188 76.9277C202.706 76.9954 202.342 77.116 202.097 77.2896C201.851 77.4588 201.729 77.7614 201.729 78.1973C201.729 78.5146 201.841 78.7749 202.065 78.978C202.293 79.1769 202.596 79.2764 202.973 79.2764C203.489 79.2764 203.914 79.0965 204.249 78.7368C204.587 78.3729 204.756 77.9137 204.756 77.3594V76.7119ZM212.202 80H211.161V77.3086H210.292C209.873 77.3086 209.492 77.6471 209.149 78.3242L208.305 80H207.099L208.19 77.9941C208.444 77.5286 208.751 77.2218 209.111 77.0737C208.603 77.006 208.216 76.8198 207.949 76.5151C207.683 76.2104 207.549 75.8296 207.549 75.3726C207.549 74.797 207.757 74.3421 208.171 74.0078C208.59 73.6693 209.176 73.5 209.93 73.5H212.202V80ZM211.161 76.439V74.3887H209.93C209.054 74.3887 208.616 74.7209 208.616 75.3853C208.616 76.0877 209.041 76.439 209.892 76.439H211.161ZM224.199 79.6191C223.526 79.9746 222.688 80.1523 221.686 80.1523C220.391 80.1523 219.354 79.7355 218.575 78.9019C217.797 78.0682 217.407 76.9743 217.407 75.6201C217.407 74.1644 217.845 72.988 218.721 72.0908C219.597 71.1937 220.708 70.7451 222.054 70.7451C222.917 70.7451 223.632 70.87 224.199 71.1196V72.2559C223.548 71.8919 222.828 71.71 222.041 71.71C220.996 71.71 220.147 72.0591 219.496 72.7573C218.848 73.4556 218.524 74.3887 218.524 75.5566C218.524 76.6654 218.827 77.5498 219.432 78.21C220.042 78.8659 220.839 79.1938 221.825 79.1938C222.739 79.1938 223.531 78.9907 224.199 78.5845V79.6191ZM228.63 80.1523C227.669 80.1523 226.901 79.8498 226.326 79.2446C225.754 78.6353 225.469 77.8291 225.469 76.8262C225.469 75.7344 225.767 74.8817 226.364 74.2681C226.96 73.6545 227.767 73.3477 228.782 73.3477C229.751 73.3477 230.507 73.646 231.048 74.2427C231.594 74.8394 231.867 75.6667 231.867 76.7246C231.867 77.7614 231.573 78.5929 230.985 79.2192C230.401 79.8413 229.616 80.1523 228.63 80.1523ZM228.706 74.2236C228.037 74.2236 227.508 74.4521 227.119 74.9092C226.73 75.362 226.535 75.9883 226.535 76.7881C226.535 77.5583 226.732 78.1655 227.125 78.6099C227.519 79.0542 228.046 79.2764 228.706 79.2764C229.379 79.2764 229.895 79.0584 230.255 78.6226C230.619 78.1867 230.801 77.5667 230.801 76.7627C230.801 75.9502 230.619 75.3239 230.255 74.8838C229.895 74.4437 229.379 74.2236 228.706 74.2236ZM237.961 79.7017C237.462 80.0021 236.869 80.1523 236.184 80.1523C235.257 80.1523 234.508 79.8519 233.937 79.251C233.369 78.6458 233.086 77.863 233.086 76.9023C233.086 75.8317 233.393 74.9727 234.006 74.3252C234.62 73.6735 235.439 73.3477 236.463 73.3477C237.034 73.3477 237.538 73.4535 237.974 73.665V74.7314C237.491 74.3929 236.975 74.2236 236.425 74.2236C235.76 74.2236 235.215 74.4627 234.787 74.9409C234.364 75.4149 234.152 76.0391 234.152 76.8135C234.152 77.5752 234.351 78.1761 234.749 78.6162C235.151 79.0563 235.688 79.2764 236.361 79.2764C236.928 79.2764 237.462 79.0881 237.961 78.7114V79.7017ZM244.931 80H243.89V77.0483H240.576V80H239.535V73.5H240.576V76.166H243.89V73.5H244.931V80ZM251.691 80H250.65V78.9844H250.625C250.172 79.763 249.505 80.1523 248.625 80.1523C247.978 80.1523 247.47 79.981 247.102 79.6382C246.738 79.2954 246.556 78.8405 246.556 78.2734C246.556 77.0589 247.271 76.3522 248.701 76.1533L250.65 75.8804C250.65 74.7759 250.203 74.2236 249.311 74.2236C248.528 74.2236 247.821 74.4902 247.19 75.0234V73.957C247.829 73.5508 248.566 73.3477 249.399 73.3477C250.927 73.3477 251.691 74.1559 251.691 75.7725V80ZM250.65 76.7119L249.082 76.9277C248.6 76.9954 248.236 77.116 247.99 77.2896C247.745 77.4588 247.622 77.7614 247.622 78.1973C247.622 78.5146 247.734 78.7749 247.958 78.978C248.187 79.1769 248.49 79.2764 248.866 79.2764C249.382 79.2764 249.808 79.0965 250.142 78.7368C250.481 78.3729 250.65 77.9137 250.65 77.3594V76.7119ZM254.604 78.5527L253.589 81.6758H252.846L253.589 78.5527H254.604ZM263.885 73.2842C263.885 73.0049 263.84 72.7616 263.751 72.5542C263.667 72.3468 263.548 72.1755 263.396 72.04C263.248 71.9004 263.072 71.7967 262.869 71.729C262.666 71.6613 262.446 71.6274 262.209 71.6274C262.006 71.6274 261.807 71.6549 261.612 71.71C261.418 71.765 261.227 71.8411 261.041 71.9385C260.859 72.0358 260.681 72.1522 260.508 72.2876C260.339 72.423 260.18 72.5732 260.032 72.7383V71.6211C260.324 71.3376 260.65 71.1217 261.009 70.9736C261.373 70.8213 261.815 70.7451 262.336 70.7451C262.708 70.7451 263.053 70.8001 263.371 70.9102C263.688 71.016 263.963 71.1725 264.196 71.3799C264.429 71.5872 264.611 71.8433 264.742 72.1479C264.877 72.4526 264.945 72.8018 264.945 73.1953C264.945 73.555 264.903 73.8809 264.818 74.1729C264.737 74.4648 264.613 74.7399 264.443 74.998C264.278 75.2562 264.069 75.5037 263.815 75.7407C263.561 75.9777 263.263 76.2189 262.92 76.4644C262.493 76.769 262.139 77.0293 261.86 77.2451C261.585 77.4609 261.365 77.6641 261.2 77.8545C261.039 78.0407 260.925 78.229 260.857 78.4194C260.793 78.6056 260.762 78.8215 260.762 79.0669H265.294V80H259.676V79.5493C259.676 79.16 259.719 78.8172 259.803 78.521C259.888 78.2248 260.028 77.9434 260.222 77.6768C260.417 77.4102 260.671 77.1436 260.984 76.877C261.301 76.6104 261.688 76.3099 262.146 75.9756C262.476 75.7386 262.751 75.5122 262.971 75.2964C263.195 75.0806 263.375 74.8647 263.51 74.6489C263.646 74.4331 263.741 74.2152 263.796 73.9951C263.855 73.7708 263.885 73.5339 263.885 73.2842ZM267.998 78.5527L266.982 81.6758H266.24L266.982 78.5527H267.998ZM32.4492 96H30.9893L28.1201 92.877H28.0947V96H27.0537V89.5H28.0947V92.4771H28.1201L30.8496 89.5H32.2144L29.1992 92.6357L32.4492 96ZM36.2324 96.1523C35.2718 96.1523 34.5037 95.8498 33.9282 95.2446C33.3569 94.6353 33.0713 93.8291 33.0713 92.8262C33.0713 91.7344 33.3696 90.8817 33.9663 90.2681C34.563 89.6545 35.3691 89.3477 36.3848 89.3477C37.3538 89.3477 38.1092 89.646 38.6509 90.2427C39.1968 90.8394 39.4697 91.6667 39.4697 92.7246C39.4697 93.7614 39.1756 94.5929 38.5874 95.2192C38.0034 95.8413 37.2184 96.1523 36.2324 96.1523ZM36.3086 90.2236C35.64 90.2236 35.111 90.4521 34.7217 90.9092C34.3324 91.362 34.1377 91.9883 34.1377 92.7881C34.1377 93.5583 34.3345 94.1655 34.728 94.6099C35.1216 95.0542 35.6484 95.2764 36.3086 95.2764C36.9814 95.2764 37.4977 95.0584 37.8574 94.6226C38.2214 94.1867 38.4033 93.5667 38.4033 92.7627C38.4033 91.9502 38.2214 91.3239 37.8574 90.8838C37.4977 90.4437 36.9814 90.2236 36.3086 90.2236ZM42.1992 95.0605H42.1738V98.9897H41.1328V89.5H42.1738V90.6426H42.1992C42.7113 89.7793 43.4603 89.3477 44.4463 89.3477C45.2842 89.3477 45.938 89.6396 46.4077 90.2236C46.8774 90.8034 47.1123 91.582 47.1123 92.5596C47.1123 93.6471 46.8478 94.5189 46.3188 95.1748C45.7899 95.8265 45.0662 96.1523 44.1479 96.1523C43.3058 96.1523 42.6562 95.7884 42.1992 95.0605ZM42.1738 92.439V93.3467C42.1738 93.8841 42.3473 94.3411 42.6943 94.7178C43.0456 95.0902 43.4899 95.2764 44.0273 95.2764C44.6579 95.2764 45.1509 95.0352 45.5063 94.5527C45.866 94.0703 46.0459 93.3996 46.0459 92.5405C46.0459 91.8169 45.8787 91.2498 45.5444 90.8394C45.2101 90.4289 44.7573 90.2236 44.186 90.2236C43.5809 90.2236 43.0942 90.4352 42.7261 90.8584C42.3579 91.2773 42.1738 91.8042 42.1738 92.439ZM54.1709 96H53.1299V90.3887H49.8164V96H48.7754V89.5H54.1709V96ZM61.4517 89.5L58.4619 97.041C57.9287 98.3867 57.1797 99.0596 56.2148 99.0596C55.944 99.0596 55.7176 99.0321 55.5356 98.9771V98.0439C55.7599 98.1201 55.9652 98.1582 56.1514 98.1582C56.6761 98.1582 57.0697 97.8451 57.332 97.2188L57.8525 95.9873L55.3135 89.5H56.4688L58.2271 94.502C58.2482 94.5654 58.2926 94.7305 58.3604 94.9971H58.3984C58.4196 94.8955 58.4619 94.7347 58.5254 94.5146L60.3726 89.5H61.4517ZM67.0059 95.7017C66.5065 96.0021 65.9141 96.1523 65.2285 96.1523C64.3018 96.1523 63.5527 95.8519 62.9814 95.251C62.4144 94.6458 62.1309 93.863 62.1309 92.9023C62.1309 91.8317 62.4377 90.9727 63.0513 90.3252C63.6649 89.6735 64.4837 89.3477 65.5078 89.3477C66.0791 89.3477 66.5827 89.4535 67.0186 89.665V90.7314C66.5361 90.3929 66.0199 90.2236 65.4697 90.2236C64.8053 90.2236 64.2594 90.4627 63.832 90.9409C63.4089 91.4149 63.1973 92.0391 63.1973 92.8135C63.1973 93.5752 63.3962 94.1761 63.7939 94.6162C64.196 95.0563 64.7334 95.2764 65.4062 95.2764C65.9733 95.2764 66.5065 95.0881 67.0059 94.7114V95.7017ZM75.6895 96H74.6484V88.1353C74.568 88.2157 74.4495 88.3088 74.293 88.4146C74.1406 88.5161 73.9671 88.6177 73.7725 88.7192C73.582 88.8208 73.3789 88.916 73.1631 89.0049C72.9515 89.0938 72.7441 89.1636 72.541 89.2144V88.1606C72.7695 88.0972 73.0107 88.0125 73.2646 87.9067C73.5228 87.7967 73.7746 87.6761 74.02 87.5449C74.2697 87.4095 74.5046 87.2699 74.7246 87.126C74.9447 86.9779 75.1351 86.834 75.2959 86.6943H75.6895V96ZM80.1074 94.5527L79.0918 97.6758H78.3491L79.0918 94.5527H80.1074ZM89.9717 95.7017C89.4723 96.0021 88.8799 96.1523 88.1943 96.1523C87.2676 96.1523 86.5186 95.8519 85.9473 95.251C85.3802 94.6458 85.0967 93.863 85.0967 92.9023C85.0967 91.8317 85.4035 90.9727 86.0171 90.3252C86.6307 89.6735 87.4495 89.3477 88.4736 89.3477C89.0449 89.3477 89.5485 89.4535 89.9844 89.665V90.7314C89.502 90.3929 88.9857 90.2236 88.4355 90.2236C87.7712 90.2236 87.2253 90.4627 86.7979 90.9409C86.3747 91.4149 86.1631 92.0391 86.1631 92.8135C86.1631 93.5752 86.362 94.1761 86.7598 94.6162C87.1618 95.0563 87.6992 95.2764 88.3721 95.2764C88.9391 95.2764 89.4723 95.0881 89.9717 94.7114V95.7017ZM95.6274 90.3887H93.6787V96H92.6377V90.3887H90.6826V89.5H95.6274V90.3887ZM97.9443 95.0605H97.9189V98.9897H96.8779V89.5H97.9189V90.6426H97.9443C98.4564 89.7793 99.2054 89.3477 100.191 89.3477C101.029 89.3477 101.683 89.6396 102.153 90.2236C102.623 90.8034 102.857 91.582 102.857 92.5596C102.857 93.6471 102.593 94.5189 102.064 95.1748C101.535 95.8265 100.811 96.1523 99.8931 96.1523C99.0509 96.1523 98.4014 95.7884 97.9443 95.0605ZM97.9189 92.439V93.3467C97.9189 93.8841 98.0924 94.3411 98.4395 94.7178C98.7907 95.0902 99.235 95.2764 99.7725 95.2764C100.403 95.2764 100.896 95.0352 101.251 94.5527C101.611 94.0703 101.791 93.3996 101.791 92.5405C101.791 91.8169 101.624 91.2498 101.29 90.8394C100.955 90.4289 100.502 90.2236 99.9312 90.2236C99.326 90.2236 98.8394 90.4352 98.4712 90.8584C98.103 91.2773 97.9189 91.8042 97.9189 92.439ZM104.882 96.1396C104.688 96.1396 104.521 96.0698 104.381 95.9302C104.245 95.7905 104.178 95.6234 104.178 95.4287C104.178 95.234 104.245 95.0669 104.381 94.9272C104.521 94.7834 104.688 94.7114 104.882 94.7114C105.081 94.7114 105.25 94.7834 105.39 94.9272C105.53 95.0669 105.6 95.234 105.6 95.4287C105.6 95.6234 105.53 95.7905 105.39 95.9302C105.25 96.0698 105.081 96.1396 104.882 96.1396ZM114.448 96H113.407V88.1353C113.327 88.2157 113.208 88.3088 113.052 88.4146C112.899 88.5161 112.726 88.6177 112.531 88.7192C112.341 88.8208 112.138 88.916 111.922 89.0049C111.71 89.0938 111.503 89.1636 111.3 89.2144V88.1606C111.528 88.0972 111.77 88.0125 112.023 87.9067C112.282 87.7967 112.533 87.6761 112.779 87.5449C113.028 87.4095 113.263 87.2699 113.483 87.126C113.703 86.9779 113.894 86.834 114.055 86.6943H114.448V96ZM118.866 94.5527L117.851 97.6758H117.108L117.851 94.5527H118.866ZM129.695 96H128.654V90.3887H125.341V96H124.3V89.5H129.695V96ZM134.52 96.1523C133.559 96.1523 132.791 95.8498 132.215 95.2446C131.644 94.6353 131.358 93.8291 131.358 92.8262C131.358 91.7344 131.657 90.8817 132.253 90.2681C132.85 89.6545 133.656 89.3477 134.672 89.3477C135.641 89.3477 136.396 89.646 136.938 90.2427C137.484 90.8394 137.757 91.6667 137.757 92.7246C137.757 93.7614 137.463 94.5929 136.875 95.2192C136.291 95.8413 135.506 96.1523 134.52 96.1523ZM134.596 90.2236C133.927 90.2236 133.398 90.4521 133.009 90.9092C132.619 91.362 132.425 91.9883 132.425 92.7881C132.425 93.5583 132.622 94.1655 133.015 94.6099C133.409 95.0542 133.936 95.2764 134.596 95.2764C135.269 95.2764 135.785 95.0584 136.145 94.6226C136.508 94.1867 136.69 93.5667 136.69 92.7627C136.69 91.9502 136.508 91.3239 136.145 90.8838C135.785 90.4437 135.269 90.2236 134.596 90.2236ZM146.44 96H145.412V90.6426C145.319 90.9134 145.175 91.3112 144.98 91.8359L143.355 96H142.422L140.747 91.8359C140.658 91.6117 140.514 91.2139 140.315 90.6426V96H139.42V89.5H140.747L142.46 93.7402C142.583 94.0492 142.74 94.4766 142.93 95.0225L143.394 93.7656L145.057 89.5H146.44V96ZM153.772 93.0103H149.183C149.2 93.7339 149.394 94.2925 149.767 94.686C150.139 95.0796 150.651 95.2764 151.303 95.2764C152.035 95.2764 152.708 95.0352 153.321 94.5527V95.5303C152.75 95.945 151.995 96.1523 151.055 96.1523C150.137 96.1523 149.415 95.8582 148.891 95.27C148.366 94.6776 148.104 93.846 148.104 92.7754C148.104 91.764 148.389 90.9409 148.96 90.3062C149.536 89.6672 150.249 89.3477 151.1 89.3477C151.95 89.3477 152.608 89.6227 153.074 90.1729C153.539 90.723 153.772 91.4868 153.772 92.4644V93.0103ZM152.706 92.1279C152.701 91.527 152.555 91.0594 152.268 90.7251C151.984 90.3908 151.588 90.2236 151.081 90.2236C150.59 90.2236 150.173 90.3993 149.83 90.7505C149.487 91.1017 149.276 91.5609 149.195 92.1279H152.706ZM164.62 98.3677H163.712V96H155.353V89.5H156.394V95.1177H158.977V89.5H160.018V95.1177H162.608V89.5H163.649V95.1177H164.62V98.3677ZM171.292 93.0103H166.702C166.719 93.7339 166.914 94.2925 167.286 94.686C167.659 95.0796 168.171 95.2764 168.822 95.2764C169.554 95.2764 170.227 95.0352 170.841 94.5527V95.5303C170.27 95.945 169.514 96.1523 168.575 96.1523C167.656 96.1523 166.935 95.8582 166.41 95.27C165.885 94.6776 165.623 93.846 165.623 92.7754C165.623 91.764 165.909 90.9409 166.48 90.3062C167.056 89.6672 167.769 89.3477 168.619 89.3477C169.47 89.3477 170.128 89.6227 170.593 90.1729C171.059 90.723 171.292 91.4868 171.292 92.4644V93.0103ZM170.225 92.1279C170.221 91.527 170.075 91.0594 169.787 90.7251C169.504 90.3908 169.108 90.2236 168.6 90.2236C168.109 90.2236 167.692 90.3993 167.35 90.7505C167.007 91.1017 166.795 91.5609 166.715 92.1279H170.225ZM178.268 96H177.227V93.0483H173.913V96H172.872V89.5H173.913V92.166H177.227V89.5H178.268V96ZM185.821 96H184.882V90.814C184.789 90.9959 184.647 91.252 184.457 91.582L181.454 96H180.375V89.5H181.327V94.6226C181.378 94.4998 181.488 94.2904 181.657 93.9941L184.742 89.5H185.821V96ZM193.153 93.0103H188.563C188.58 93.7339 188.775 94.2925 189.147 94.686C189.52 95.0796 190.032 95.2764 190.684 95.2764C191.416 95.2764 192.089 95.0352 192.702 94.5527V95.5303C192.131 95.945 191.375 96.1523 190.436 96.1523C189.518 96.1523 188.796 95.8582 188.271 95.27C187.747 94.6776 187.484 93.846 187.484 92.7754C187.484 91.764 187.77 90.9409 188.341 90.3062C188.917 89.6672 189.63 89.3477 190.48 89.3477C191.331 89.3477 191.989 89.6227 192.455 90.1729C192.92 90.723 193.153 91.4868 193.153 92.4644V93.0103ZM192.086 92.1279C192.082 91.527 191.936 91.0594 191.648 90.7251C191.365 90.3908 190.969 90.2236 190.461 90.2236C189.971 90.2236 189.554 90.3993 189.211 90.7505C188.868 91.1017 188.657 91.5609 188.576 92.1279H192.086ZM202.147 89.2842C202.147 89.0049 202.103 88.7616 202.014 88.5542C201.93 88.3468 201.811 88.1755 201.659 88.04C201.511 87.9004 201.335 87.7967 201.132 87.729C200.929 87.6613 200.709 87.6274 200.472 87.6274C200.269 87.6274 200.07 87.6549 199.875 87.71C199.68 87.765 199.49 87.8411 199.304 87.9385C199.122 88.0358 198.944 88.1522 198.771 88.2876C198.601 88.423 198.443 88.5732 198.294 88.7383V87.6211C198.586 87.3376 198.912 87.1217 199.272 86.9736C199.636 86.8213 200.078 86.7451 200.599 86.7451C200.971 86.7451 201.316 86.8001 201.633 86.9102C201.951 87.016 202.226 87.1725 202.458 87.3799C202.691 87.5872 202.873 87.8433 203.004 88.1479C203.14 88.4526 203.208 88.8018 203.208 89.1953C203.208 89.555 203.165 89.8809 203.081 90.1729C203 90.4648 202.875 90.7399 202.706 90.998C202.541 91.2562 202.332 91.5037 202.078 91.7407C201.824 91.9777 201.525 92.2189 201.183 92.4644C200.755 92.769 200.402 93.0293 200.123 93.2451C199.847 93.4609 199.627 93.6641 199.462 93.8545C199.302 94.0407 199.187 94.229 199.12 94.4194C199.056 94.6056 199.024 94.8215 199.024 95.0669H203.557V96H197.939V95.5493C197.939 95.16 197.981 94.8172 198.066 94.521C198.151 94.2248 198.29 93.9434 198.485 93.6768C198.68 93.4102 198.933 93.1436 199.247 92.877C199.564 92.6104 199.951 92.3099 200.408 91.9756C200.738 91.7386 201.013 91.5122 201.233 91.2964C201.458 91.0806 201.638 90.8647 201.773 90.6489C201.908 90.4331 202.004 90.2152 202.059 89.9951C202.118 89.7708 202.147 89.5339 202.147 89.2842ZM206.261 94.5527L205.245 97.6758H204.502L205.245 94.5527H206.261ZM214.411 96.1523C213.451 96.1523 212.682 95.8498 212.107 95.2446C211.536 94.6353 211.25 93.8291 211.25 92.8262C211.25 91.7344 211.548 90.8817 212.145 90.2681C212.742 89.6545 213.548 89.3477 214.563 89.3477C215.533 89.3477 216.288 89.646 216.83 90.2427C217.375 90.8394 217.648 91.6667 217.648 92.7246C217.648 93.7614 217.354 94.5929 216.766 95.2192C216.182 95.8413 215.397 96.1523 214.411 96.1523ZM214.487 90.2236C213.819 90.2236 213.29 90.4521 212.9 90.9092C212.511 91.362 212.316 91.9883 212.316 92.7881C212.316 93.5583 212.513 94.1655 212.907 94.6099C213.3 95.0542 213.827 95.2764 214.487 95.2764C215.16 95.2764 215.676 95.0584 216.036 94.6226C216.4 94.1867 216.582 93.5667 216.582 92.7627C216.582 91.9502 216.4 91.3239 216.036 90.8838C215.676 90.4437 215.16 90.2236 214.487 90.2236ZM223.184 96.1523V99.0596H222.244V96.1523L222.041 96.1523C221.093 96.1523 220.327 95.8455 219.743 95.2319C219.159 94.6183 218.867 93.8164 218.867 92.8262C218.867 91.7725 219.161 90.9303 219.75 90.2998C220.342 89.665 221.123 89.3477 222.092 89.3477L222.244 89.3477V86.7451H223.184V89.3477H223.323C224.301 89.3477 225.084 89.6629 225.672 90.2935C226.264 90.9198 226.561 91.764 226.561 92.8262C226.561 93.8164 226.271 94.6183 225.691 95.2319C225.111 95.8455 224.349 96.1523 223.406 96.1523H223.184ZM223.184 90.2236V95.2764H223.323C223.983 95.2764 224.51 95.0542 224.904 94.6099C225.297 94.1613 225.494 93.554 225.494 92.7881C225.494 91.984 225.299 91.3556 224.91 90.9028C224.525 90.45 224.007 90.2236 223.355 90.2236H223.184ZM222.244 95.2764V90.2236L222.092 90.2236C221.44 90.2236 220.917 90.4521 220.524 90.9092C220.13 91.362 219.934 91.9883 219.934 92.7881C219.934 93.5456 220.13 94.1507 220.524 94.6035C220.922 95.0521 221.453 95.2764 222.117 95.2764L222.244 95.2764ZM233.683 96H232.743V90.814C232.65 90.9959 232.508 91.252 232.318 91.582L229.315 96H228.236V89.5H229.188V94.6226C229.239 94.4998 229.349 94.2904 229.519 93.9941L232.604 89.5H233.683V96ZM240.221 95.7017C239.721 96.0021 239.129 96.1523 238.443 96.1523C237.517 96.1523 236.768 95.8519 236.196 95.251C235.629 94.6458 235.346 93.863 235.346 92.9023C235.346 91.8317 235.653 90.9727 236.266 90.3252C236.88 89.6735 237.699 89.3477 238.723 89.3477C239.294 89.3477 239.798 89.4535 240.233 89.665V90.7314C239.751 90.3929 239.235 90.2236 238.685 90.2236C238.02 90.2236 237.474 90.4627 237.047 90.9409C236.624 91.4149 236.412 92.0391 236.412 92.8135C236.412 93.5752 236.611 94.1761 237.009 94.6162C237.411 95.0563 237.948 95.2764 238.621 95.2764C239.188 95.2764 239.721 95.0881 240.221 94.7114V95.7017ZM250.358 93.4229C250.358 93.8333 250.28 94.2078 250.123 94.5464C249.971 94.8807 249.753 95.1685 249.469 95.4097C249.19 95.6466 248.854 95.8307 248.46 95.9619C248.066 96.0931 247.633 96.1587 247.159 96.1587C246.291 96.1587 245.601 95.9937 245.089 95.6636V94.5464C245.703 95.0288 246.405 95.27 247.197 95.27C247.514 95.27 247.8 95.2298 248.054 95.1494C248.312 95.069 248.532 94.9526 248.714 94.8003C248.9 94.6479 249.042 94.4639 249.139 94.248C249.241 94.0322 249.292 93.7889 249.292 93.5181C249.292 92.3289 248.445 91.7344 246.752 91.7344H245.997V90.8521H246.714C248.212 90.8521 248.961 90.2935 248.961 89.1763C248.961 88.1437 248.39 87.6274 247.248 87.6274C246.604 87.6274 246.001 87.8433 245.438 88.2749V87.2656C246.018 86.9186 246.708 86.7451 247.508 86.7451C247.889 86.7451 248.234 86.798 248.542 86.9038C248.851 87.0096 249.116 87.1577 249.336 87.3481C249.556 87.5386 249.725 87.7671 249.844 88.0337C249.966 88.3003 250.028 88.5944 250.028 88.916C250.028 90.1136 249.423 90.8838 248.212 91.2266V91.252C248.521 91.2858 248.807 91.362 249.069 91.4805C249.332 91.5947 249.558 91.745 249.749 91.9312C249.939 92.1174 250.087 92.3374 250.193 92.5913C250.303 92.841 250.358 93.1182 250.358 93.4229ZM256.712 86.8975V92.9087H257.88V93.8608H256.712V96H255.684V93.8608H251.405V92.9595C251.803 92.5109 252.205 92.0327 252.611 91.5249C253.018 91.0129 253.405 90.4945 253.773 89.9697C254.145 89.445 254.488 88.9224 254.801 88.4019C255.119 87.8771 255.385 87.3757 255.601 86.8975H256.712ZM252.58 92.9087H255.684V88.4526C255.366 89.007 255.066 89.5021 254.782 89.938C254.499 90.3739 254.228 90.7695 253.97 91.125C253.716 91.4805 253.472 91.8021 253.24 92.0898C253.007 92.3776 252.787 92.6506 252.58 92.9087Z" fill="black"/>
<defs>
<filter id="filter0_dd_7_1186" x="0" y="-6.10352e-05" width="300" height="124" filterUnits="userSpaceOnUse" color-interpolation-filters="sRGB">
<feFlood flood-opacity="0" result="BackgroundImageFix"/>
<feColorMatrix in="SourceAlpha" type="matrix" values="0 0 0 0 0 0 0 0 0 0 0 0 0 0 0 0 0 0 127 0" result="hardAlpha"/>
<feOffset/>
<feGaussianBlur stdDeviation="0.5"/>
<feComposite in2="hardAlpha" operator="out"/>
<feColorMatrix type="matrix" values="0 0 0 0 0 0 0 0 0 0 0 0 0 0 0 0 0 0 0.3 0"/>
<feBlend mode="normal" in2="BackgroundImageFix" result="effect1_dropShadow_7_1186"/>
<feColorMatrix in="SourceAlpha" type="matrix" values="0 0 0 0 0 0 0 0 0 0 0 0 0 0 0 0 0 0 127 0" result="hardAlpha"/>
<feOffset dy="2"/>
<feGaussianBlur stdDeviation="5"/>
<feComposite in2="hardAlpha" operator="out"/>
<feColorMatrix type="matrix" values="0 0 0 0 0 0 0 0 0 0 0 0 0 0 0 0 0 0 0.15 0"/>
<feBlend mode="normal" in2="effect1_dropShadow_7_1186" result="effect2_dropShadow_7_1186"/>
<feBlend mode="normal" in="SourceGraphic" in2="effect2_dropShadow_7_1186" result="shape"/>
</filter>
</defs>
</svg>
