<svg width="259" height="84" viewBox="0 0 259 84" fill="none" xmlns="http://www.w3.org/2000/svg">
<g filter="url(#filter0_dd_7_1169)">
<rect x="10" y="8" width="239" height="64" rx="8" fill="white" shape-rendering="crispEdges"/>
<path d="M33.3887 31.6191C32.7158 31.9746 31.8779 32.1523 30.875 32.1523C29.5801 32.1523 28.5433 31.7355 27.7646 30.9019C26.986 30.0682 26.5967 28.9743 26.5967 27.6201C26.5967 26.1644 27.0347 24.988 27.9106 24.0908C28.7866 23.1937 29.8975 22.7451 31.2432 22.7451C32.1064 22.7451 32.8216 22.87 33.3887 23.1196V24.2559C32.737 23.8919 32.0176 23.71 31.2305 23.71C30.1852 23.71 29.3368 24.0591 28.6851 24.7573C28.0376 25.4556 27.7139 26.3887 27.7139 27.5566C27.7139 28.6654 28.0164 29.5498 28.6216 30.21C29.231 30.8659 30.0286 31.1938 31.0146 31.1938C31.9287 31.1938 32.7201 30.9907 33.3887 30.5845V31.6191ZM40.498 32H39.0381L36.1689 28.877H36.1436V32H35.1025V25.5H36.1436V28.4771H36.1689L38.8984 25.5H40.2632L37.248 28.6357L40.498 32ZM47.0107 32H46.0713V26.814C45.9782 26.9959 45.8364 27.252 45.646 27.582L42.6436 32H41.5645V25.5H42.5166V30.6226C42.5674 30.4998 42.6774 30.2904 42.8467 29.9941L45.9316 25.5H47.0107V32ZM54.7866 34.3677H53.9043V32L49.0674 32V34.3677H48.1787V31.1177H48.7563C49.8651 29.5181 50.4279 27.6455 50.4448 25.5H53.8218V31.1177H54.7866V34.3677ZM52.7808 31.1177V26.3823H51.3398C51.2256 28.1343 50.7326 29.7127 49.8608 31.1177L52.7808 31.1177ZM61.623 32H60.1631L57.2939 28.877H57.2686V32H56.2275V25.5H57.2686V28.4771H57.2939L60.0234 25.5H61.3882L58.373 28.6357L61.623 32ZM67.3423 32H66.3013V30.9844H66.2759C65.8231 31.763 65.1566 32.1523 64.2764 32.1523C63.6289 32.1523 63.1211 31.981 62.7529 31.6382C62.389 31.2954 62.207 30.8405 62.207 30.2734C62.207 29.0589 62.9222 28.3522 64.3525 28.1533L66.3013 27.8804C66.3013 26.7759 65.8548 26.2236 64.9619 26.2236C64.179 26.2236 63.4723 26.4902 62.8418 27.0234V25.957C63.4808 25.5508 64.2171 25.3477 65.0508 25.3477C66.5785 25.3477 67.3423 26.1559 67.3423 27.7725V32ZM66.3013 28.7119L64.7334 28.9277C64.251 28.9954 63.887 29.116 63.6416 29.2896C63.3962 29.4588 63.2734 29.7614 63.2734 30.1973C63.2734 30.5146 63.3856 30.7749 63.6099 30.978C63.8384 31.1769 64.141 31.2764 64.5176 31.2764C65.0339 31.2764 65.4591 31.0965 65.7935 30.7368C66.132 30.3729 66.3013 29.9137 66.3013 29.3594V28.7119ZM77.9683 29.2197C77.9683 29.6641 77.8921 30.0661 77.7397 30.4258C77.5874 30.7855 77.3695 31.0944 77.0859 31.3525C76.8066 31.6107 76.4681 31.8096 76.0703 31.9492C75.6725 32.0889 75.2303 32.1587 74.7437 32.1587C73.8973 32.1587 73.2689 32.0317 72.8584 31.7778V30.6733C73.4762 31.0711 74.1089 31.27 74.7563 31.27C75.0864 31.27 75.3826 31.2214 75.645 31.124C75.9116 31.0267 76.138 30.8913 76.3242 30.7178C76.5104 30.5443 76.6522 30.3348 76.7495 30.0894C76.8511 29.8439 76.9019 29.5752 76.9019 29.2832C76.9019 28.6908 76.703 28.2274 76.3052 27.8931C75.9074 27.5545 75.3298 27.3853 74.5723 27.3853C74.4495 27.3853 74.3205 27.3874 74.1851 27.3916C74.0496 27.3958 73.9142 27.4022 73.7788 27.4106C73.6434 27.4149 73.5101 27.4212 73.3789 27.4297C73.252 27.4382 73.1356 27.4487 73.0298 27.4614L73.3408 22.8975L77.5493 22.8975V23.8369L74.2422 23.8369L74.0581 26.5093C74.1935 26.5008 74.3374 26.4945 74.4897 26.4902C74.6421 26.4818 74.7775 26.4775 74.896 26.4775C75.3784 26.4775 75.8101 26.541 76.1909 26.668C76.5718 26.7949 76.8934 26.9769 77.1558 27.2139C77.4224 27.4466 77.6234 27.7344 77.7588 28.0771C77.8984 28.4157 77.9683 28.7965 77.9683 29.2197ZM84.9761 29.2197C84.9761 29.6641 84.8999 30.0661 84.7476 30.4258C84.5952 30.7855 84.3773 31.0944 84.0938 31.3525C83.8145 31.6107 83.4759 31.8096 83.0781 31.9492C82.6803 32.0889 82.2381 32.1587 81.7515 32.1587C80.9051 32.1587 80.2767 32.0317 79.8662 31.7778V30.6733C80.484 31.0711 81.1167 31.27 81.7642 31.27C82.0942 31.27 82.3905 31.2214 82.6528 31.124C82.9194 31.0267 83.1458 30.8913 83.332 30.7178C83.5182 30.5443 83.66 30.3348 83.7573 30.0894C83.8589 29.8439 83.9097 29.5752 83.9097 29.2832C83.9097 28.6908 83.7108 28.2274 83.313 27.8931C82.9152 27.5545 82.3376 27.3853 81.5801 27.3853C81.4574 27.3853 81.3283 27.3874 81.1929 27.3916C81.0575 27.3958 80.922 27.4022 80.7866 27.4106C80.6512 27.4149 80.5179 27.4212 80.3867 27.4297C80.2598 27.4382 80.1434 27.4487 80.0376 27.4614L80.3486 22.8975H84.5571V23.8369H81.25L81.0659 26.5093C81.2013 26.5008 81.3452 26.4945 81.4976 26.4902C81.6499 26.4818 81.7853 26.4775 81.9038 26.4775C82.3862 26.4775 82.8179 26.541 83.1987 26.668C83.5796 26.7949 83.9012 26.9769 84.1636 27.2139C84.4302 27.4466 84.6312 27.7344 84.7666 28.0771C84.9062 28.4157 84.9761 28.7965 84.9761 29.2197ZM88.3975 27.4614C87.7712 27.4614 87.2718 27.2562 86.8994 26.8457C86.527 26.431 86.3408 25.8787 86.3408 25.189C86.3408 24.4357 86.5376 23.8433 86.9312 23.4116C87.3247 22.9757 87.8558 22.7578 88.5244 22.7578C89.1719 22.7578 89.6733 22.9588 90.0288 23.3608C90.3885 23.7629 90.5684 24.3278 90.5684 25.0557C90.5684 25.7835 90.3674 26.3675 89.9653 26.8076C89.5675 27.2435 89.0449 27.4614 88.3975 27.4614ZM88.4863 23.4561C88.0843 23.4561 87.7669 23.6063 87.5342 23.9067C87.3014 24.203 87.1851 24.6113 87.1851 25.1318C87.1851 25.6439 87.2993 26.0438 87.5278 26.3315C87.7563 26.6151 88.0674 26.7568 88.4609 26.7568C88.8587 26.7568 89.1698 26.6087 89.394 26.3125C89.6183 26.0163 89.7305 25.6058 89.7305 25.0811C89.7305 24.569 89.6183 24.1712 89.394 23.8877C89.174 23.5999 88.8714 23.4561 88.4863 23.4561ZM94.4912 22.8975L88.6514 32.0635H87.7437L93.5771 22.8975H94.4912ZM93.8184 32.1396C93.1921 32.1396 92.6927 31.9323 92.3203 31.5176C91.9479 31.1029 91.7617 30.5527 91.7617 29.8672C91.7617 29.1139 91.9606 28.5194 92.3584 28.0835C92.7562 27.6434 93.2852 27.4233 93.9453 27.4233C94.5885 27.4233 95.09 27.6265 95.4497 28.0327C95.8094 28.439 95.9893 29.0081 95.9893 29.7402C95.9893 30.4639 95.7882 31.0457 95.3862 31.4858C94.9884 31.9217 94.4658 32.1396 93.8184 32.1396ZM93.9072 28.1406C93.501 28.1406 93.1815 28.2887 92.9487 28.585C92.7202 28.8812 92.606 29.2917 92.606 29.8164C92.606 30.32 92.7202 30.7157 92.9487 31.0034C93.1772 31.2869 93.4883 31.4287 93.8818 31.4287C94.2796 31.4287 94.5907 31.2806 94.8149 30.9844C95.0392 30.6839 95.1514 30.2734 95.1514 29.7529C95.1514 29.2367 95.0392 28.8389 94.8149 28.5596C94.5949 28.2803 94.2923 28.1406 93.9072 28.1406Z" fill="#A0A0A4"/>
<path d="M33.3887 55.6191C32.7158 55.9746 31.8779 56.1523 30.875 56.1523C29.5801 56.1523 28.5433 55.7355 27.7646 54.9019C26.986 54.0682 26.5967 52.9743 26.5967 51.6201C26.5967 50.1644 27.0347 48.988 27.9106 48.0908C28.7866 47.1937 29.8975 46.7451 31.2432 46.7451C32.1064 46.7451 32.8216 46.87 33.3887 47.1196V48.2559C32.737 47.8919 32.0176 47.71 31.2305 47.71C30.1852 47.71 29.3368 48.0591 28.6851 48.7573C28.0376 49.4556 27.7139 50.3887 27.7139 51.5566C27.7139 52.6654 28.0164 53.5498 28.6216 54.21C29.231 54.8659 30.0286 55.1938 31.0146 55.1938C31.9287 55.1938 32.7201 54.9907 33.3887 54.5845V55.6191ZM40.498 56H39.0381L36.1689 52.877H36.1436V56H35.1025V49.5H36.1436V52.4771H36.1689L38.8984 49.5H40.2632L37.248 52.6357L40.498 56ZM47.0107 56H46.0713V50.814C45.9782 50.9959 45.8364 51.252 45.646 51.582L42.6436 56H41.5645V49.5H42.5166V54.6226C42.5674 54.4998 42.6774 54.2904 42.8467 53.9941L45.9316 49.5H47.0107V56ZM54.7866 58.3677H53.9043V56H49.0674V58.3677H48.1787V55.1177H48.7563C49.8651 53.5181 50.4279 51.6455 50.4448 49.5H53.8218V55.1177H54.7866V58.3677ZM52.7808 55.1177V50.3823H51.3398C51.2256 52.1343 50.7326 53.7127 49.8608 55.1177H52.7808ZM61.623 56H60.1631L57.2939 52.877H57.2686V56H56.2275V49.5H57.2686V52.4771H57.2939L60.0234 49.5H61.3882L58.373 52.6357L61.623 56ZM67.3423 56H66.3013V54.9844H66.2759C65.8231 55.763 65.1566 56.1523 64.2764 56.1523C63.6289 56.1523 63.1211 55.981 62.7529 55.6382C62.389 55.2954 62.207 54.8405 62.207 54.2734C62.207 53.0589 62.9222 52.3522 64.3525 52.1533L66.3013 51.8804C66.3013 50.7759 65.8548 50.2236 64.9619 50.2236C64.179 50.2236 63.4723 50.4902 62.8418 51.0234V49.957C63.4808 49.5508 64.2171 49.3477 65.0508 49.3477C66.5785 49.3477 67.3423 50.1559 67.3423 51.7725V56ZM66.3013 52.7119L64.7334 52.9277C64.251 52.9954 63.887 53.116 63.6416 53.2896C63.3962 53.4588 63.2734 53.7614 63.2734 54.1973C63.2734 54.5146 63.3856 54.7749 63.6099 54.978C63.8384 55.1769 64.141 55.2764 64.5176 55.2764C65.0339 55.2764 65.4591 55.0965 65.7935 54.7368C66.132 54.3729 66.3013 53.9137 66.3013 53.3594V52.7119ZM78.2666 56H77.2256V50.3887H73.9121V56H72.8711V49.5H78.2666V56ZM83.0908 56.1523C82.1302 56.1523 81.3621 55.8498 80.7866 55.2446C80.2153 54.6353 79.9297 53.8291 79.9297 52.8262C79.9297 51.7344 80.228 50.8817 80.8247 50.2681C81.4214 49.6545 82.2275 49.3477 83.2432 49.3477C84.2122 49.3477 84.9676 49.646 85.5093 50.2427C86.0552 50.8394 86.3281 51.6667 86.3281 52.7246C86.3281 53.7614 86.034 54.5929 85.4458 55.2192C84.8618 55.8413 84.0768 56.1523 83.0908 56.1523ZM83.167 50.2236C82.4984 50.2236 81.9694 50.4521 81.5801 50.9092C81.1908 51.362 80.9961 51.9883 80.9961 52.7881C80.9961 53.5583 81.1929 54.1655 81.5864 54.6099C81.98 55.0542 82.5068 55.2764 83.167 55.2764C83.8398 55.2764 84.3561 55.0584 84.7158 54.6226C85.0798 54.1867 85.2617 53.5667 85.2617 52.7627C85.2617 51.9502 85.0798 51.3239 84.7158 50.8838C84.3561 50.4437 83.8398 50.2236 83.167 50.2236ZM93.3867 56H91.9268L89.0576 52.877H89.0322V56H87.9912V49.5H89.0322V52.4771H89.0576L91.7871 49.5H93.1519L90.1367 52.6357L93.3867 56ZM99.6265 49.5L96.6367 57.041C96.1035 58.3867 95.3545 59.0596 94.3896 59.0596C94.1188 59.0596 93.8924 59.0321 93.7104 58.9771V58.0439C93.9347 58.1201 94.14 58.1582 94.3262 58.1582C94.8509 58.1582 95.2445 57.8451 95.5068 57.2187L96.0273 55.9873L93.4883 49.5H94.6436L96.4019 54.502C96.423 54.5654 96.4674 54.7305 96.5352 54.9971H96.5732C96.5944 54.8955 96.6367 54.7347 96.7002 54.5146L98.5474 49.5H99.6265ZM106.146 56H105.104V50.3887H101.791V56H100.75V49.5H106.146V56ZM112.906 56H111.865V54.9844H111.839C111.387 55.763 110.72 56.1523 109.84 56.1523C109.192 56.1523 108.685 55.981 108.316 55.6382C107.952 55.2954 107.771 54.8405 107.771 54.2734C107.771 53.0589 108.486 52.3522 109.916 52.1533L111.865 51.8804C111.865 50.7759 111.418 50.2236 110.525 50.2236C109.743 50.2236 109.036 50.4902 108.405 51.0234V49.957C109.044 49.5508 109.781 49.3477 110.614 49.3477C112.142 49.3477 112.906 50.1559 112.906 51.7725V56ZM111.865 52.7119L110.297 52.9277C109.814 52.9954 109.451 53.116 109.205 53.2896C108.96 53.4588 108.837 53.7614 108.837 54.1973C108.837 54.5146 108.949 54.7749 109.173 54.978C109.402 55.1769 109.704 55.2764 110.081 55.2764C110.597 55.2764 111.023 55.0965 111.357 54.7368C111.695 54.3729 111.865 53.9137 111.865 53.3594V52.7119ZM118.949 50.3887H117V56H115.959V50.3887H114.004V49.5H118.949V50.3887ZM125.423 53.0103L120.834 53.0103C120.851 53.7339 121.046 54.2925 121.418 54.686C121.79 55.0796 122.302 55.2764 122.954 55.2764C123.686 55.2764 124.359 55.0352 124.973 54.5527V55.5303C124.401 55.945 123.646 56.1523 122.707 56.1523C121.788 56.1523 121.067 55.8582 120.542 55.27C120.017 54.6776 119.755 53.846 119.755 52.7754C119.755 51.764 120.041 50.9409 120.612 50.3062C121.187 49.6672 121.9 49.3477 122.751 49.3477C123.602 49.3477 124.26 49.6227 124.725 50.1729C125.191 50.723 125.423 51.4868 125.423 52.4644V53.0103ZM124.357 52.1279C124.353 51.527 124.207 51.0594 123.919 50.7251C123.635 50.3908 123.24 50.2236 122.732 50.2236C122.241 50.2236 121.824 50.3993 121.481 50.7505C121.139 51.1017 120.927 51.5609 120.847 52.1279L124.357 52.1279ZM131.746 56H130.711V50.3823H129.2C129.027 52.4855 128.728 53.9624 128.305 54.813C127.886 55.6636 127.321 56.0889 126.61 56.0889C126.395 56.0889 126.208 56.0592 126.052 56V55.105C126.2 55.1812 126.361 55.2192 126.534 55.2192C127.465 55.2192 128.064 53.3128 128.331 49.5L131.746 49.5V56ZM138.303 56H137.262V53.3086H136.392C135.973 53.3086 135.592 53.6471 135.25 54.3242L134.405 56H133.199L134.291 53.9941C134.545 53.5286 134.852 53.2218 135.211 53.0737C134.704 53.006 134.316 52.8198 134.05 52.5151C133.783 52.2104 133.65 51.8296 133.65 51.3726C133.65 50.797 133.857 50.3421 134.272 50.0078C134.691 49.6693 135.277 49.5 136.03 49.5H138.303V56ZM137.262 52.439V50.3887H136.03C135.154 50.3887 134.716 50.7209 134.716 51.3853C134.716 52.0877 135.142 52.439 135.992 52.439H137.262ZM147.507 56H146.466V48.1353C146.385 48.2157 146.267 48.3088 146.11 48.4146C145.958 48.5161 145.785 48.6177 145.59 48.7192C145.399 48.8208 145.196 48.916 144.98 49.0049C144.769 49.0937 144.562 49.1636 144.358 49.2144V48.1606C144.587 48.0972 144.828 48.0125 145.082 47.9067C145.34 47.7967 145.592 47.6761 145.837 47.5449C146.087 47.4095 146.322 47.2699 146.542 47.126C146.762 46.9779 146.952 46.834 147.113 46.6943H147.507V56ZM156.394 51.4106C156.394 52.1724 156.324 52.8473 156.184 53.4355C156.049 54.0238 155.85 54.521 155.587 54.9272C155.329 55.3293 155.01 55.6361 154.629 55.8477C154.252 56.055 153.823 56.1587 153.34 56.1587C152.883 56.1587 152.475 56.0592 152.115 55.8604C151.76 55.6572 151.459 55.3631 151.214 54.978C150.968 54.5929 150.782 54.1211 150.655 53.5625C150.528 52.9997 150.465 52.3564 150.465 51.6328C150.465 50.8372 150.53 50.1348 150.662 49.5254C150.797 48.916 150.994 48.4061 151.252 47.9956C151.51 47.5809 151.83 47.2699 152.21 47.0625C152.596 46.8509 153.036 46.7451 153.531 46.7451C155.439 46.7451 156.394 48.3003 156.394 51.4106ZM155.327 51.5122C155.327 48.9224 154.711 47.6274 153.48 47.6274C152.181 47.6274 151.531 48.9456 151.531 51.582C151.531 54.0407 152.168 55.27 153.442 55.27C154.699 55.27 155.327 54.0174 155.327 51.5122ZM159.491 51.4614C158.865 51.4614 158.366 51.2562 157.993 50.8457C157.621 50.431 157.435 49.8787 157.435 49.189C157.435 48.4357 157.631 47.8433 158.025 47.4116C158.418 46.9757 158.95 46.7578 159.618 46.7578C160.266 46.7578 160.767 46.9588 161.123 47.3608C161.482 47.7629 161.662 48.3278 161.662 49.0557C161.662 49.7835 161.461 50.3675 161.059 50.8076C160.661 51.2435 160.139 51.4614 159.491 51.4614ZM159.58 47.4561C159.178 47.4561 158.861 47.6063 158.628 47.9067C158.395 48.203 158.279 48.6113 158.279 49.1318C158.279 49.6439 158.393 50.0438 158.622 50.3315C158.85 50.6151 159.161 50.7568 159.555 50.7568C159.952 50.7568 160.264 50.6087 160.488 50.3125C160.712 50.0163 160.824 49.6058 160.824 49.0811C160.824 48.569 160.712 48.1712 160.488 47.8877C160.268 47.5999 159.965 47.4561 159.58 47.4561ZM165.585 46.8975L159.745 56.0635H158.837L164.671 46.8975H165.585ZM164.912 56.1396C164.286 56.1396 163.786 55.9323 163.414 55.5176C163.042 55.1029 162.855 54.5527 162.855 53.8672C162.855 53.1139 163.054 52.5194 163.452 52.0835C163.85 51.6434 164.379 51.4233 165.039 51.4233C165.682 51.4233 166.184 51.6265 166.543 52.0327C166.903 52.439 167.083 53.0081 167.083 53.7402C167.083 54.4639 166.882 55.0457 166.48 55.4858C166.082 55.9217 165.56 56.1396 164.912 56.1396ZM165.001 52.1406C164.595 52.1406 164.275 52.2887 164.042 52.585C163.814 52.8812 163.7 53.2917 163.7 53.8164C163.7 54.32 163.814 54.7157 164.042 55.0034C164.271 55.2869 164.582 55.4287 164.976 55.4287C165.373 55.4287 165.684 55.2806 165.909 54.9844C166.133 54.6839 166.245 54.2734 166.245 53.7529C166.245 53.2367 166.133 52.8389 165.909 52.5596C165.689 52.2803 165.386 52.1406 165.001 52.1406Z" fill="#A0A0A4"/>
<path d="M183.439 28.6357H177.473V27.7852H183.439V28.6357ZM190.949 29.4229C190.949 29.8333 190.87 30.2078 190.714 30.5464C190.562 30.8807 190.344 31.1685 190.06 31.4097C189.781 31.6466 189.444 31.8307 189.051 31.9619C188.657 32.0931 188.223 32.1587 187.75 32.1587C186.882 32.1587 186.192 31.9937 185.68 31.6636V30.5464C186.294 31.0288 186.996 31.27 187.788 31.27C188.105 31.27 188.391 31.2298 188.645 31.1494C188.903 31.069 189.123 30.9526 189.305 30.8003C189.491 30.6479 189.633 30.4639 189.73 30.248C189.832 30.0322 189.882 29.7889 189.882 29.5181C189.882 28.3289 189.036 27.7344 187.343 27.7344H186.588V26.8521H187.305C188.803 26.8521 189.552 26.2935 189.552 25.1763C189.552 24.1437 188.981 23.6274 187.838 23.6274C187.195 23.6274 186.592 23.8433 186.029 24.2749V23.2656C186.609 22.9186 187.299 22.7451 188.099 22.7451C188.479 22.7451 188.824 22.798 189.133 22.9038C189.442 23.0096 189.707 23.1577 189.927 23.3481C190.147 23.5386 190.316 23.7671 190.435 24.0337C190.557 24.3003 190.619 24.5944 190.619 24.916C190.619 26.1136 190.014 26.8838 188.803 27.2266V27.252C189.112 27.2858 189.398 27.362 189.66 27.4805C189.923 27.5947 190.149 27.745 190.339 27.9312C190.53 28.1174 190.678 28.3374 190.784 28.5913C190.894 28.841 190.949 29.1182 190.949 29.4229ZM198.382 27.4106C198.382 28.1724 198.312 28.8473 198.172 29.4355C198.037 30.0238 197.838 30.521 197.576 30.9272C197.318 31.3293 196.998 31.6361 196.617 31.8477C196.241 32.055 195.811 32.1587 195.329 32.1587C194.872 32.1587 194.463 32.0592 194.104 31.8604C193.748 31.6572 193.448 31.3631 193.202 30.978C192.957 30.5929 192.771 30.1211 192.644 29.5625C192.517 28.9997 192.453 28.3564 192.453 27.6328C192.453 26.8372 192.519 26.1348 192.65 25.5254C192.785 24.916 192.982 24.4061 193.24 23.9956C193.498 23.5809 193.818 23.2699 194.199 23.0625C194.584 22.8509 195.024 22.7451 195.519 22.7451C197.428 22.7451 198.382 24.3003 198.382 27.4106ZM197.315 27.5122C197.315 24.9224 196.7 23.6274 195.468 23.6274C194.169 23.6274 193.52 24.9456 193.52 27.582C193.52 30.0407 194.156 31.27 195.43 31.27C196.687 31.27 197.315 30.0174 197.315 27.5122ZM205.39 27.4106C205.39 28.1724 205.32 28.8473 205.18 29.4355C205.045 30.0238 204.846 30.521 204.583 30.9272C204.325 31.3293 204.006 31.6361 203.625 31.8477C203.248 32.055 202.819 32.1587 202.336 32.1587C201.879 32.1587 201.471 32.0592 201.111 31.8604C200.756 31.6572 200.455 31.3631 200.21 30.978C199.965 30.5929 199.778 30.1211 199.651 29.5625C199.524 28.9997 199.461 28.3564 199.461 27.6328C199.461 26.8372 199.527 26.1348 199.658 25.5254C199.793 24.916 199.99 24.4061 200.248 23.9956C200.506 23.5809 200.826 23.2699 201.207 23.0625C201.592 22.8509 202.032 22.7451 202.527 22.7451C204.435 22.7451 205.39 24.3003 205.39 27.4106ZM204.323 27.5122C204.323 24.9224 203.708 23.6274 202.476 23.6274C201.177 23.6274 200.527 24.9456 200.527 27.582C200.527 30.0407 201.164 31.27 202.438 31.27C203.695 31.27 204.323 30.0174 204.323 27.5122ZM214.975 31.7017C214.475 32.0021 213.883 32.1523 213.197 32.1523C212.271 32.1523 211.521 31.8519 210.95 31.251C210.383 30.6458 210.1 29.863 210.1 28.9023C210.1 27.8317 210.406 26.9727 211.02 26.3252C211.634 25.6735 212.452 25.3477 213.477 25.3477C214.048 25.3477 214.551 25.4535 214.987 25.665V26.7314C214.505 26.3929 213.989 26.2236 213.438 26.2236C212.774 26.2236 212.228 26.4627 211.801 26.9409C211.378 27.4149 211.166 28.0391 211.166 28.8135C211.166 29.5752 211.365 30.1761 211.763 30.6162C212.165 31.0563 212.702 31.2764 213.375 31.2764C213.942 31.2764 214.475 31.0881 214.975 30.7114V31.7017ZM219.266 32.1523C218.305 32.1523 217.537 31.8498 216.961 31.2446C216.39 30.6353 216.104 29.8291 216.104 28.8262C216.104 27.7344 216.403 26.8817 217 26.2681C217.596 25.6545 218.402 25.3477 219.418 25.3477C220.387 25.3477 221.142 25.646 221.684 26.2427C222.23 26.8394 222.503 27.6667 222.503 28.7246C222.503 29.7614 222.209 30.5929 221.621 31.2192C221.037 31.8413 220.252 32.1523 219.266 32.1523ZM219.342 26.2236C218.673 26.2236 218.144 26.4521 217.755 26.9092C217.366 27.362 217.171 27.9883 217.171 28.7881C217.171 29.5583 217.368 30.1655 217.761 30.6099C218.155 31.0542 218.682 31.2764 219.342 31.2764C220.015 31.2764 220.531 31.0584 220.891 30.6226C221.255 30.1867 221.437 29.5667 221.437 28.7627C221.437 27.9502 221.255 27.3239 220.891 26.8838C220.531 26.4437 220.015 26.2236 219.342 26.2236ZM231.187 32H230.158V26.6426C230.065 26.9134 229.921 27.3112 229.727 27.8359L228.102 32H227.168L225.493 27.8359C225.404 27.6117 225.26 27.2139 225.061 26.6426V32H224.166V25.5L225.493 25.5L227.207 29.7402C227.329 30.0492 227.486 30.4766 227.676 31.0225L228.14 29.7656L229.803 25.5H231.187V32Z" fill="black"/>
<path d="M190.439 52.6357H184.473V51.7852H190.439V52.6357ZM197.949 53.4229C197.949 53.8333 197.87 54.2078 197.714 54.5464C197.562 54.8807 197.344 55.1685 197.06 55.4097C196.781 55.6466 196.444 55.8307 196.051 55.9619C195.657 56.0931 195.223 56.1587 194.75 56.1587C193.882 56.1587 193.192 55.9937 192.68 55.6636V54.5464C193.294 55.0288 193.996 55.27 194.788 55.27C195.105 55.27 195.391 55.2298 195.645 55.1494C195.903 55.069 196.123 54.9526 196.305 54.8003C196.491 54.6479 196.633 54.4639 196.73 54.248C196.832 54.0322 196.882 53.7889 196.882 53.5181C196.882 52.3289 196.036 51.7344 194.343 51.7344H193.588V50.8521H194.305C195.803 50.8521 196.552 50.2935 196.552 49.1763C196.552 48.1437 195.981 47.6274 194.838 47.6274C194.195 47.6274 193.592 47.8433 193.029 48.2749V47.2656C193.609 46.9186 194.299 46.7451 195.099 46.7451C195.479 46.7451 195.824 46.798 196.133 46.9038C196.442 47.0096 196.707 47.1577 196.927 47.3481C197.147 47.5386 197.316 47.7671 197.435 48.0337C197.557 48.3003 197.619 48.5944 197.619 48.916C197.619 50.1136 197.014 50.8838 195.803 51.2266V51.252C196.112 51.2858 196.398 51.362 196.66 51.4805C196.923 51.5947 197.149 51.745 197.339 51.9312C197.53 52.1174 197.678 52.3374 197.784 52.5913C197.894 52.841 197.949 53.1182 197.949 53.4229ZM205.382 51.4106C205.382 52.1724 205.312 52.8473 205.172 53.4355C205.037 54.0238 204.838 54.521 204.576 54.9272C204.318 55.3293 203.998 55.6361 203.617 55.8477C203.241 56.055 202.811 56.1587 202.329 56.1587C201.872 56.1587 201.463 56.0592 201.104 55.8604C200.748 55.6572 200.448 55.3631 200.202 54.978C199.957 54.5929 199.771 54.1211 199.644 53.5625C199.517 52.9997 199.453 52.3564 199.453 51.6328C199.453 50.8372 199.519 50.1348 199.65 49.5254C199.785 48.916 199.982 48.4061 200.24 47.9956C200.498 47.5809 200.818 47.2699 201.199 47.0625C201.584 46.8509 202.024 46.7451 202.519 46.7451C204.428 46.7451 205.382 48.3003 205.382 51.4106ZM204.315 51.5122C204.315 48.9224 203.7 47.6274 202.468 47.6274C201.169 47.6274 200.52 48.9456 200.52 51.582C200.52 54.0407 201.156 55.27 202.43 55.27C203.687 55.27 204.315 54.0174 204.315 51.5122ZM214.967 55.7017C214.467 56.0021 213.875 56.1523 213.189 56.1523C212.263 56.1523 211.514 55.8519 210.942 55.251C210.375 54.6458 210.092 53.863 210.092 52.9023C210.092 51.8317 210.399 50.9727 211.012 50.3252C211.626 49.6735 212.445 49.3477 213.469 49.3477C214.04 49.3477 214.544 49.4535 214.979 49.665V50.7314C214.497 50.3929 213.981 50.2236 213.431 50.2236C212.766 50.2236 212.22 50.4627 211.793 50.9409C211.37 51.4149 211.158 52.0391 211.158 52.8135C211.158 53.5752 211.357 54.1761 211.755 54.6162C212.157 55.0563 212.694 55.2764 213.367 55.2764C213.934 55.2764 214.467 55.0881 214.967 54.7114V55.7017ZM219.258 56.1523C218.297 56.1523 217.529 55.8498 216.954 55.2446C216.382 54.6353 216.097 53.8291 216.097 52.8262C216.097 51.7344 216.395 50.8817 216.992 50.2681C217.588 49.6545 218.395 49.3477 219.41 49.3477C220.379 49.3477 221.135 49.646 221.676 50.2427C222.222 50.8394 222.495 51.6667 222.495 52.7246C222.495 53.7614 222.201 54.5929 221.613 55.2192C221.029 55.8413 220.244 56.1523 219.258 56.1523ZM219.334 50.2236C218.665 50.2236 218.136 50.4521 217.747 50.9092C217.358 51.362 217.163 51.9883 217.163 52.7881C217.163 53.5583 217.36 54.1655 217.753 54.6099C218.147 55.0542 218.674 55.2764 219.334 55.2764C220.007 55.2764 220.523 55.0584 220.883 54.6226C221.247 54.1867 221.429 53.5667 221.429 52.7627C221.429 51.9502 221.247 51.3239 220.883 50.8838C220.523 50.4437 220.007 50.2236 219.334 50.2236ZM231.179 56H230.15V50.6426C230.057 50.9134 229.913 51.3112 229.719 51.8359L228.094 56L227.161 56L225.485 51.8359C225.396 51.6117 225.252 51.2139 225.053 50.6426V56H224.158V49.5H225.485L227.199 53.7402C227.321 54.0492 227.478 54.4766 227.668 55.0225L228.132 53.7656L229.795 49.5H231.179V56Z" fill="black"/>
</g>
<defs>
<filter id="filter0_dd_7_1169" x="0" y="0" width="259" height="84" filterUnits="userSpaceOnUse" color-interpolation-filters="sRGB">
<feFlood flood-opacity="0" result="BackgroundImageFix"/>
<feColorMatrix in="SourceAlpha" type="matrix" values="0 0 0 0 0 0 0 0 0 0 0 0 0 0 0 0 0 0 127 0" result="hardAlpha"/>
<feOffset/>
<feGaussianBlur stdDeviation="0.5"/>
<feComposite in2="hardAlpha" operator="out"/>
<feColorMatrix type="matrix" values="0 0 0 0 0 0 0 0 0 0 0 0 0 0 0 0 0 0 0.3 0"/>
<feBlend mode="normal" in2="BackgroundImageFix" result="effect1_dropShadow_7_1169"/>
<feColorMatrix in="SourceAlpha" type="matrix" values="0 0 0 0 0 0 0 0 0 0 0 0 0 0 0 0 0 0 127 0" result="hardAlpha"/>
<feOffset dy="2"/>
<feGaussianBlur stdDeviation="5"/>
<feComposite in2="hardAlpha" operator="out"/>
<feColorMatrix type="matrix" values="0 0 0 0 0 0 0 0 0 0 0 0 0 0 0 0 0 0 0.15 0"/>
<feBlend mode="normal" in2="effect1_dropShadow_7_1169" result="effect2_dropShadow_7_1169"/>
<feBlend mode="normal" in="SourceGraphic" in2="effect2_dropShadow_7_1169" result="shape"/>
</filter>
</defs>
</svg>
